<svg version="1.1" id="Layer_1" xmlns="http://www.w3.org/2000/svg" xmlns:xlink="http://www.w3.org/1999/xlink" x="0px" y="0px"
	 width="100%" viewBox="0 0 2244 684" enable-background="new 0 0 2244 684" xml:space="preserve">
<path fill="none" opacity="1.000000" stroke="none" 
	d="
M1460.000000,685.000000 
	C973.333313,685.000000 487.166656,685.000000 1.000000,685.000000 
	C1.000000,457.000000 1.000000,229.000000 1.000000,1.000000 
	C749.000000,1.000000 1497.000000,1.000000 2245.000000,1.000000 
	C2245.000000,229.000000 2245.000000,457.000000 2245.000000,685.000000 
	C1983.500000,685.000000 1722.000000,685.000000 1460.000000,685.000000 
M251.500000,552.003662 
	C318.156708,552.003662 384.813477,552.046814 451.470001,551.936646 
	C458.105133,551.925720 464.839294,551.543396 471.356781,550.378479 
	C513.971497,542.761719 545.773560,505.344971 545.914001,462.050629 
	C546.163818,385.062805 545.991699,308.073639 545.981140,231.085022 
	C545.980713,228.254745 546.078369,225.389648 545.698914,222.599442 
	C539.073914,173.888596 501.395813,141.028458 452.106293,141.005341 
	C377.783875,140.970474 303.461426,140.958939 229.139175,141.061768 
	C222.669739,141.070709 216.107910,141.470795 209.747925,142.591232 
	C166.423798,150.223709 135.123367,188.192047 135.036057,233.448532 
	C134.890747,308.770508 134.984955,384.092957 135.007904,459.415222 
	C135.011642,471.684448 136.802826,483.658051 141.800797,494.969055 
	C155.881897,526.836365 179.848862,546.242615 214.579483,550.899780 
	C226.389969,552.483521 238.517395,551.703552 251.500000,552.003662 
M915.174255,321.499939 
	C915.174255,353.487030 915.105103,385.474304 915.201416,417.461090 
	C915.255005,435.267395 912.776428,432.843781 930.912598,432.990112 
	C937.299927,433.041656 937.942383,432.326630 937.943481,425.768677 
	C937.949890,388.616577 937.946960,351.464447 937.947266,314.312347 
	C937.947266,312.754761 937.947266,311.197174 937.947266,309.639557 
	C939.202698,310.476013 939.629333,311.464783 940.045898,312.457764 
	C955.007263,348.124817 969.881409,383.828796 984.966736,419.443359 
	C991.921204,435.862061 987.510742,432.505432 1005.088135,433.092041 
	C1009.811462,433.249664 1012.238464,431.640320 1014.060242,427.243591 
	C1029.691162,389.518982 1045.535645,351.882812 1061.334839,314.228027 
	C1061.988647,312.669678 1062.824829,311.187805 1064.151855,308.507233 
	C1064.423828,310.835724 1064.625366,311.764832 1064.626831,312.694305 
	C1064.648438,325.855774 1064.643311,339.017303 1064.643555,352.178802 
	C1064.644165,377.002411 1064.730225,401.826538 1064.568604,426.649109 
	C1064.537476,431.414978 1066.191772,433.398712 1070.962280,433.047852 
	C1074.110718,432.816345 1077.290039,433.017670 1080.455322,433.001160 
	C1086.531494,432.969452 1087.125366,432.418823 1087.137817,426.524597 
	C1087.161865,415.195740 1087.144897,403.866821 1087.144775,392.537933 
	C1087.144653,351.720581 1087.149902,310.903259 1087.137939,270.085907 
	C1087.136230,263.979950 1086.681641,263.537476 1080.637207,263.493927 
	C1076.139282,263.461517 1071.621948,263.744354 1067.147583,263.417267 
	C1062.228149,263.057678 1059.813965,265.132904 1057.962524,269.659454 
	C1039.800415,314.063538 1021.423767,358.379822 1003.096863,402.716461 
	C1002.590881,403.940491 1001.958862,405.112457 1001.095459,406.914032 
	C1000.149475,404.797791 999.519470,403.474091 998.958679,402.121613 
	C982.236816,361.790710 965.554749,321.443207 948.768616,281.139069 
	C946.365845,275.369965 944.867126,267.649384 940.404846,264.752319 
	C935.867065,261.806244 928.183472,263.597260 921.874878,263.518005 
	C915.745850,263.441010 915.183716,264.119293 915.178650,270.519470 
	C915.165466,287.179596 915.174255,303.839752 915.174255,321.499939 
M1280.937988,351.444702 
	C1281.607178,357.049438 1281.812988,362.755859 1283.016846,368.243317 
	C1295.918335,427.045959 1363.714844,455.228790 1414.043457,422.216370 
	C1444.493530,402.242981 1457.406128,373.314178 1453.120605,337.007202 
	C1448.122559,294.664429 1411.171265,261.725586 1368.616211,261.478760 
	C1316.669678,261.177490 1278.824707,304.483887 1280.937988,351.444702 
M1148.691406,432.544464 
	C1149.462524,430.532104 1150.876831,428.527893 1150.902222,426.506165 
	C1151.091309,411.515961 1151.004517,396.522308 1151.004150,381.529724 
	C1151.004028,377.759583 1151.004028,373.989441 1151.004028,370.005463 
	C1165.375610,370.005463 1179.180054,369.911987 1192.978760,370.147034 
	C1194.390381,370.171082 1196.324219,371.868744 1197.076904,373.287750 
	C1205.015991,388.251831 1212.604004,403.403015 1220.605835,418.332733 
	C1230.322754,436.462921 1224.200317,432.556580 1244.744629,432.978027 
	C1250.588135,433.097931 1251.224243,431.888397 1248.424683,426.548157 
	C1240.559570,411.545319 1232.660034,396.560486 1224.769775,381.570770 
	C1222.310181,376.898132 1219.836914,372.232635 1217.291138,367.414795 
	C1219.796021,366.570007 1221.843140,365.896118 1223.879150,365.190277 
	C1238.435669,360.144012 1247.349487,349.926147 1250.964600,335.111481 
	C1253.810547,323.448944 1253.580811,311.700348 1251.226562,299.945923 
	C1248.085327,284.261536 1239.160034,273.263245 1223.962769,268.451111 
	C1215.821777,265.873260 1207.088745,264.265167 1198.563599,263.977875 
	C1177.596680,263.271210 1156.595459,263.567535 1135.608032,263.492767 
	C1128.756714,263.468353 1128.273682,263.981415 1128.272583,270.896057 
	C1128.265869,311.875732 1128.269043,352.855408 1128.269043,393.835083 
	C1128.269043,404.829620 1128.378906,415.825806 1128.215698,426.817932 
	C1128.149536,431.275269 1129.811768,433.280853 1134.371826,433.045929 
	C1138.857666,432.814819 1143.360596,432.917755 1148.691406,432.544464 
M1677.500244,263.490387 
	C1664.672241,263.490692 1651.841431,263.641174 1639.017456,263.414093 
	C1634.184082,263.328522 1632.717773,265.130371 1632.729248,269.862579 
	C1632.855835,322.008331 1632.805420,374.154541 1632.815796,426.300598 
	C1632.817139,432.574097 1633.265015,432.996033 1639.750244,432.998016 
	C1669.738403,433.007263 1699.726562,433.028564 1729.714722,432.991241 
	C1745.334595,432.971802 1743.285156,434.635376 1743.391846,418.994354 
	C1743.434692,412.716431 1742.824097,412.169342 1736.527100,412.166473 
	C1711.370361,412.154999 1686.213623,412.161774 1661.056885,412.161774 
	C1659.275024,412.161774 1657.493286,412.161774 1655.513428,412.161774 
	C1655.513428,392.900452 1655.513428,374.163025 1655.513428,355.002106 
	C1657.376831,355.002106 1659.002686,355.002106 1660.628418,355.002106 
	C1681.453491,355.002106 1702.278687,355.010590 1723.103760,354.999298 
	C1738.677124,354.990875 1736.784668,356.416229 1736.859131,340.979126 
	C1736.888428,334.910797 1736.089478,334.169647 1729.903931,334.166504 
	C1706.912964,334.154755 1683.922119,334.161774 1660.931152,334.161774 
	C1659.165649,334.161774 1657.400024,334.161774 1655.550415,334.161774 
	C1655.550415,317.129669 1655.550415,300.726166 1655.550415,284.002106 
	C1657.634033,284.002106 1659.443848,284.002106 1661.253540,284.002106 
	C1683.911255,284.002106 1706.569580,284.098663 1729.226440,283.969543 
	C1745.430786,283.877197 1742.924316,286.427063 1743.112061,269.939880 
	C1743.180054,263.962891 1742.653198,263.506256 1736.477295,263.499268 
	C1717.151611,263.477448 1697.825928,263.490753 1677.500244,263.490387 
M2011.024536,334.543976 
	C2030.318115,312.923492 2049.626221,291.315826 2068.870361,269.651642 
	C2070.072266,268.298676 2070.774170,266.501831 2072.543945,263.489777 
	C2064.963135,263.489777 2058.859863,263.729980 2052.786377,263.409363 
	C2048.386719,263.177124 2045.358398,264.627625 2042.444946,267.973694 
	C2021.666260,291.837097 2000.703857,315.540436 1979.792969,339.288666 
	C1978.227295,341.066589 1976.608154,342.797272 1974.247070,345.392853 
	C1974.247070,342.375549 1974.246948,340.747681 1974.246948,339.119843 
	C1974.246704,315.964905 1974.167603,292.809479 1974.314941,269.655457 
	C1974.343384,265.194916 1972.923950,263.132629 1968.294800,263.446442 
	C1964.978394,263.671265 1961.634155,263.467773 1958.302734,263.495392 
	C1952.198853,263.545929 1951.793457,263.929993 1951.789062,270.059540 
	C1951.772583,292.881287 1951.782227,315.703064 1951.782349,338.524811 
	C1951.782593,367.843292 1951.774414,397.161743 1951.791138,426.480225 
	C1951.794556,432.457153 1952.344360,432.963715 1958.406372,432.999146 
	C1961.571289,433.017670 1964.749268,432.821869 1967.898438,433.044769 
	C1972.622314,433.379059 1974.391235,431.490509 1974.326172,426.676025 
	C1974.114380,411.020172 1974.216431,395.359467 1974.289795,379.701111 
	C1974.297974,377.955261 1974.319580,375.725006 1975.314941,374.548431 
	C1980.979980,367.852356 1986.942383,361.407959 1993.043701,354.610626 
	C1994.604736,356.675568 1995.902710,358.351868 1997.158081,360.059509 
	C2011.546753,379.632935 2026.745605,398.678589 2039.994141,418.995789 
	C2047.447632,430.426025 2055.997314,435.260376 2069.015869,432.983582 
	C2070.899170,432.654205 2072.738281,432.071625 2074.597900,431.606262 
	C2073.925781,429.852997 2073.591797,427.854767 2072.527832,426.385284 
	C2063.939697,414.525146 2055.211426,402.766663 2046.532227,390.972473 
	C2033.634521,373.445862 2020.742065,355.915344 2007.750122,338.254242 
	C2008.808350,337.046600 2009.675781,336.056702 2011.024536,334.543976 
M1792.056885,296.566284 
	C1775.987183,319.104553 1771.826904,344.035645 1778.131714,370.628296 
	C1792.919800,433.001923 1869.010010,457.321991 1916.379761,414.998230 
	C1921.368530,410.540924 1921.378784,410.176056 1916.614136,405.166992 
	C1915.121338,403.597565 1913.611206,402.044647 1912.119141,400.474548 
	C1907.135376,395.230743 1907.137451,395.229034 1901.424438,399.839630 
	C1878.498291,418.342224 1845.432007,419.025269 1822.939209,400.705048 
	C1801.627441,383.346558 1795.301025,360.180145 1800.202637,333.888184 
	C1806.372559,300.792297 1838.764771,279.029572 1871.916382,284.739532 
	C1883.562012,286.745331 1893.714478,291.643372 1902.785767,298.969116 
	C1906.019409,301.580444 1908.529907,301.620392 1911.162964,298.204163 
	C1912.985596,295.839264 1915.038452,293.586823 1917.290771,291.632599 
	C1921.089844,288.336243 1920.401123,285.966705 1916.800415,282.835327 
	C1878.846436,249.828201 1822.998291,255.683105 1792.056885,296.566284 
M2149.947266,373.500000 
	C2149.947266,386.277283 2149.947266,399.054565 2149.947266,412.158020 
	C2137.970947,412.158020 2126.505615,412.124176 2115.040771,412.166199 
	C2098.921631,412.225281 2101.138916,410.444519 2101.009521,426.321594 
	C2100.961426,432.252625 2101.713379,432.989075 2107.544678,432.996704 
	C2125.039551,433.019653 2142.534180,433.004944 2160.029053,433.004944 
	C2178.356934,433.004944 2196.685547,432.905792 2215.011719,433.073029 
	C2219.727539,433.116089 2221.798340,431.481873 2221.428467,426.673798 
	C2221.186279,423.526703 2221.329834,420.344818 2221.395264,417.180450 
	C2221.469482,413.584534 2219.746094,412.051910 2216.198975,412.134888 
	C2211.869141,412.236145 2207.535400,412.158142 2203.203369,412.158081 
	C2193.090332,412.157928 2182.977051,412.158020 2172.803223,412.158020 
	C2172.803223,369.194702 2172.803223,326.791077 2172.803223,284.004944 
	C2184.655273,284.004944 2196.289551,284.106018 2207.921631,283.979889 
	C2223.209473,283.814117 2221.249756,286.451019 2221.369385,270.471985 
	C2221.418701,263.878113 2220.968018,263.490479 2214.214844,263.488800 
	C2178.892090,263.479950 2143.569336,263.484497 2108.246582,263.485962 
	C2107.247070,263.485992 2106.246582,263.484161 2105.247803,263.516632 
	C2102.429443,263.608276 2100.969727,265.002930 2100.993652,267.896332 
	C2101.024170,271.561615 2101.129639,275.233429 2100.961182,278.891296 
	C2100.777344,282.884766 2102.682617,284.159882 2106.426270,284.048706 
	C2112.086426,283.880676 2117.754883,284.004944 2123.419922,284.004944 
	C2132.184326,284.004974 2140.948730,284.004944 2149.947266,284.004944 
	C2149.947266,313.899902 2149.947266,343.199951 2149.947266,373.500000 
M797.800171,285.499939 
	C797.800171,364.555878 797.800171,443.611847 797.800171,522.632446 
	C804.654480,522.632446 810.754578,522.632446 816.844849,522.632446 
	C816.844849,405.034454 816.844849,287.688049 816.844849,170.371857 
	C810.365906,170.371857 804.267029,170.371857 797.800171,170.371857 
	C797.800171,208.581833 797.800171,246.540848 797.800171,285.499939 
M1587.447021,412.162567 
	C1562.822876,412.162567 1538.198608,412.162567 1513.098267,412.162567 
	C1513.098267,410.141113 1513.098145,408.515991 1513.098267,406.890869 
	C1513.098755,392.891846 1513.099487,378.892853 1513.099609,364.893829 
	C1513.099854,333.229401 1513.022827,301.564545 1513.183228,269.900940 
	C1513.207275,265.158813 1511.735352,263.082397 1506.894043,263.448547 
	C1503.745728,263.686646 1500.564453,263.476105 1497.398193,263.494995 
	C1491.056030,263.532898 1490.571655,263.984192 1490.570312,270.316589 
	C1490.559082,322.146271 1490.559570,373.975983 1490.569824,425.805664 
	C1490.571167,432.680023 1490.927002,432.998596 1498.071655,432.999695 
	C1526.736328,433.004150 1555.401001,433.001526 1584.065674,433.001526 
	C1587.232178,433.001526 1590.408203,432.844635 1593.562744,433.038696 
	C1598.153564,433.321136 1600.623657,431.702423 1600.042725,426.750214 
	C1599.927002,425.763855 1600.026978,424.752350 1600.026367,423.752411 
	C1600.017700,411.575317 1601.305176,412.072205 1587.447021,412.162567 
M57.500023,404.110474 
	C49.184464,404.110870 40.868618,404.068146 32.553410,404.122437 
	C21.817289,404.192566 14.042303,411.501648 14.000396,421.472778 
	C13.958294,431.489838 21.707853,438.913177 32.392441,438.946472 
	C48.358158,438.996277 64.324303,439.001556 80.289970,438.944458 
	C90.824295,438.906799 98.778000,431.224579 98.641693,421.382141 
	C98.506866,411.646454 90.759705,404.242645 80.452927,404.126923 
	C73.136147,404.044739 65.817719,404.110657 57.500023,404.110474 
M272.683929,21.506039 
	C259.072540,16.930662 248.105759,24.733847 248.076340,39.062901 
	C248.044540,54.549660 248.047791,70.036575 248.076355,85.523346 
	C248.096893,96.652847 255.218826,104.435928 265.457520,104.605728 
	C275.379242,104.770264 282.893463,96.642838 282.916992,85.624405 
	C282.950073,70.137650 282.836151,54.650040 282.963165,39.164257 
	C283.026154,31.480976 280.181702,25.625595 272.683929,21.506039 
M277.066376,668.626648 
	C281.226410,664.761475 282.955475,659.933228 282.940155,654.319641 
	C282.896881,638.501160 282.985321,622.682251 282.902588,606.864075 
	C282.846558,596.154297 275.351868,588.340637 265.422546,588.394531 
	C255.477478,588.448486 248.136658,596.242859 248.088593,607.013733 
	C248.018005,622.832031 248.078598,638.650818 248.065445,654.469421 
	C248.059418,661.717712 250.850006,667.516174 257.338562,670.945374 
	C263.995636,674.463684 270.498505,673.693542 277.066376,668.626648 
M610.505981,254.040894 
	C607.346313,254.040924 604.186523,254.020050 601.027039,254.044800 
	C590.310730,254.128693 582.577271,261.406860 582.550049,271.415161 
	C582.522949,281.408997 590.263489,288.828033 600.959595,288.872070 
	C616.757629,288.937103 632.556213,288.923431 648.354309,288.876038 
	C659.475830,288.842651 667.070190,281.622009 667.050415,271.235046 
	C667.031372,261.237915 659.352173,254.101669 648.421753,254.052856 
	C636.115967,253.997894 623.809753,254.040649 610.505981,254.040894 
M14.001339,270.657104 
	C14.404663,281.943451 21.365488,288.812653 32.701813,288.869995 
	C48.344131,288.949127 63.987213,288.916840 79.629845,288.880035 
	C90.659935,288.854095 98.662430,281.466309 98.645790,271.426361 
	C98.629143,261.382324 90.652016,254.077881 79.555809,254.050568 
	C64.079597,254.012451 48.603176,254.017593 33.126930,254.048172 
	C22.287445,254.069580 16.127459,259.192535 14.001339,270.657104 
M398.161743,61.499969 
	C398.162262,69.648087 398.093201,77.796959 398.180481,85.944145 
	C398.296326,96.755959 405.514160,104.487450 415.459381,104.608208 
	C425.515411,104.730309 432.956268,96.783707 432.988983,85.751488 
	C433.035309,70.120537 433.031921,54.489277 432.991821,38.858295 
	C432.963165,27.674763 425.769196,19.957148 415.523102,19.995636 
	C405.533234,20.033165 398.315369,27.692762 398.179077,38.550152 
	C398.087250,45.865673 398.161682,53.183289 398.161743,61.499969 
M657.378540,437.163300 
	C665.321899,432.282349 668.696228,424.878387 666.553955,417.030548 
	C664.348022,408.949432 657.531128,404.145813 648.028564,404.120789 
	C632.547241,404.080048 617.065674,404.086517 601.584351,404.118927 
	C590.425415,404.142303 582.581360,411.335358 582.545898,421.488403 
	C582.510498,431.649994 590.360596,438.931488 601.458557,438.951965 
	C616.939880,438.980530 632.422058,439.032410 647.902222,438.894562 
	C650.834167,438.868469 653.758667,438.004791 657.378540,437.163300 
M398.161743,624.500000 
	C398.161987,634.643555 398.037903,644.789124 398.196411,654.930176 
	C398.363647,665.626648 405.943512,673.183044 416.004822,673.003113 
	C425.808838,672.827759 432.939606,665.213867 432.984253,654.657837 
	C433.051758,638.694458 433.052887,622.730347 432.981659,606.767029 
	C432.934967,596.296631 425.755585,588.634521 415.976166,588.393982 
	C406.079437,588.150635 398.414917,595.903625 398.186005,606.539246 
	C398.064392,612.190430 398.162720,617.846313 398.161743,624.500000 
z"/>
<path fill="#FFFFFF" opacity="1.000000" stroke="none" 
	d="
M251.000000,552.003662 
	C238.517395,551.703552 226.389969,552.483521 214.579483,550.899780 
	C179.848862,546.242615 155.881897,526.836365 141.800797,494.969055 
	C136.802826,483.658051 135.011642,471.684448 135.007904,459.415222 
	C134.984955,384.092957 134.890747,308.770508 135.036057,233.448532 
	C135.123367,188.192047 166.423798,150.223709 209.747925,142.591232 
	C216.107910,141.470795 222.669739,141.070709 229.139175,141.061768 
	C303.461426,140.958939 377.783875,140.970474 452.106293,141.005341 
	C501.395813,141.028458 539.073914,173.888596 545.698914,222.599442 
	C546.078369,225.389648 545.980713,228.254745 545.981140,231.085022 
	C545.991699,308.073639 546.163818,385.062805 545.914001,462.050629 
	C545.773560,505.344971 513.971497,542.761719 471.356781,550.378479 
	C464.839294,551.543396 458.105133,551.925720 451.470001,551.936646 
	C384.813477,552.046814 318.156708,552.003662 251.000000,552.003662 
M360.500061,175.836746 
	C317.006592,175.836746 273.513092,175.818741 230.019669,175.864761 
	C225.698730,175.869339 221.306381,175.836288 217.069153,176.547470 
	C189.001862,181.258286 169.878006,204.594833 169.855621,234.197159 
	C169.799042,309.018921 169.831955,383.840759 169.853775,458.662567 
	C169.854691,461.822632 169.768982,465.038940 170.289413,468.133911 
	C175.336578,498.148621 197.770126,517.121399 228.379623,517.144653 
	C303.201385,517.201416 378.023315,517.200073 452.844940,517.086426 
	C458.287140,517.078125 463.918671,516.679993 469.136841,515.264221 
	C495.359619,508.149567 511.410461,486.433899 511.446716,458.053375 
	C511.541931,383.564972 511.492371,309.076355 511.439758,234.587845 
	C511.437073,230.771713 511.160828,226.905441 510.514465,223.148102 
	C505.732910,195.351837 483.081116,176.098175 454.485352,175.891586 
	C423.491760,175.667679 392.495270,175.838226 360.500061,175.836746 
z"/>
<path fill="#FFFFFF" opacity="1.000000" stroke="none" 
	d="
M915.174255,320.999908 
	C915.174255,303.839752 915.165466,287.179596 915.178650,270.519470 
	C915.183716,264.119293 915.745850,263.441010 921.874878,263.518005 
	C928.183472,263.597260 935.867065,261.806244 940.404846,264.752319 
	C944.867126,267.649384 946.365845,275.369965 948.768616,281.139069 
	C965.554749,321.443207 982.236816,361.790710 998.958679,402.121613 
	C999.519470,403.474091 1000.149475,404.797791 1001.095459,406.914032 
	C1001.958862,405.112457 1002.590881,403.940491 1003.096863,402.716461 
	C1021.423767,358.379822 1039.800415,314.063538 1057.962524,269.659454 
	C1059.813965,265.132904 1062.228149,263.057678 1067.147583,263.417267 
	C1071.621948,263.744354 1076.139282,263.461517 1080.637207,263.493927 
	C1086.681641,263.537476 1087.136230,263.979950 1087.137939,270.085907 
	C1087.149902,310.903259 1087.144653,351.720581 1087.144775,392.537933 
	C1087.144897,403.866821 1087.161865,415.195740 1087.137817,426.524597 
	C1087.125366,432.418823 1086.531494,432.969452 1080.455322,433.001160 
	C1077.290039,433.017670 1074.110718,432.816345 1070.962280,433.047852 
	C1066.191772,433.398712 1064.537476,431.414978 1064.568604,426.649109 
	C1064.730225,401.826538 1064.644165,377.002411 1064.643555,352.178802 
	C1064.643311,339.017303 1064.648438,325.855774 1064.626831,312.694305 
	C1064.625366,311.764832 1064.423828,310.835724 1064.151855,308.507233 
	C1062.824829,311.187805 1061.988647,312.669678 1061.334839,314.228027 
	C1045.535645,351.882812 1029.691162,389.518982 1014.060242,427.243591 
	C1012.238464,431.640320 1009.811462,433.249664 1005.088135,433.092041 
	C987.510742,432.505432 991.921204,435.862061 984.966736,419.443359 
	C969.881409,383.828796 955.007263,348.124817 940.045898,312.457764 
	C939.629333,311.464783 939.202698,310.476013 937.947266,309.639557 
	C937.947266,311.197174 937.947266,312.754761 937.947266,314.312347 
	C937.946960,351.464447 937.949890,388.616577 937.943481,425.768677 
	C937.942383,432.326630 937.299927,433.041656 930.912598,432.990112 
	C912.776428,432.843781 915.255005,435.267395 915.201416,417.461090 
	C915.105103,385.474304 915.174255,353.487030 915.174255,320.999908 
z"/>
<path fill="#FFFFFF" opacity="1.000000" stroke="none" 
	d="
M1280.927246,350.953705 
	C1278.824707,304.483887 1316.669678,261.177490 1368.616211,261.478760 
	C1411.171265,261.725586 1448.122559,294.664429 1453.120605,337.007202 
	C1457.406128,373.314178 1444.493530,402.242981 1414.043457,422.216370 
	C1363.714844,455.228790 1295.918335,427.045959 1283.016846,368.243317 
	C1281.812988,362.755859 1281.607178,357.049438 1280.927246,350.953705 
M1400.143799,405.706573 
	C1424.790405,389.790344 1435.167358,367.006897 1430.826660,338.276489 
	C1427.020142,313.082825 1412.776245,295.170013 1388.463745,286.726929 
	C1363.957642,278.216644 1341.622681,283.565338 1322.846313,301.127472 
	C1299.237793,323.209198 1296.427246,362.030914 1315.739746,388.359772 
	C1335.150146,414.821808 1369.896240,422.159760 1400.143799,405.706573 
z"/>
<path fill="#FFFFFF" opacity="1.000000" stroke="none" 
	d="
M1148.273682,432.709290 
	C1143.360596,432.917755 1138.857666,432.814819 1134.371826,433.045929 
	C1129.811768,433.280853 1128.149536,431.275269 1128.215698,426.817932 
	C1128.378906,415.825806 1128.269043,404.829620 1128.269043,393.835083 
	C1128.269043,352.855408 1128.265869,311.875732 1128.272583,270.896057 
	C1128.273682,263.981415 1128.756714,263.468353 1135.608032,263.492767 
	C1156.595459,263.567535 1177.596680,263.271210 1198.563599,263.977875 
	C1207.088745,264.265167 1215.821777,265.873260 1223.962769,268.451111 
	C1239.160034,273.263245 1248.085327,284.261536 1251.226562,299.945923 
	C1253.580811,311.700348 1253.810547,323.448944 1250.964600,335.111481 
	C1247.349487,349.926147 1238.435669,360.144012 1223.879150,365.190277 
	C1221.843140,365.896118 1219.796021,366.570007 1217.291138,367.414795 
	C1219.836914,372.232635 1222.310181,376.898132 1224.769775,381.570770 
	C1232.660034,396.560486 1240.559570,411.545319 1248.424683,426.548157 
	C1251.224243,431.888397 1250.588135,433.097931 1244.744629,432.978027 
	C1224.200317,432.556580 1230.322754,436.462921 1220.605835,418.332733 
	C1212.604004,403.403015 1205.015991,388.251831 1197.076904,373.287750 
	C1196.324219,371.868744 1194.390381,370.171082 1192.978760,370.147034 
	C1179.180054,369.911987 1165.375610,370.005463 1151.004028,370.005463 
	C1151.004028,373.989441 1151.004028,377.759583 1151.004150,381.529724 
	C1151.004517,396.522308 1151.091309,411.515961 1150.902222,426.506165 
	C1150.876831,428.527893 1149.462524,430.532104 1148.273682,432.709290 
M1222.806763,341.332031 
	C1231.756836,331.690796 1232.017212,320.003082 1230.250488,308.055328 
	C1228.327881,295.052826 1221.861450,288.204376 1209.139526,285.401581 
	C1204.952026,284.479034 1200.572632,284.116028 1196.274292,284.065308 
	C1182.461304,283.902252 1168.645264,283.996521 1154.830322,284.018188 
	C1153.576050,284.020142 1152.322021,284.212860 1151.288086,284.298737 
	C1151.288086,306.122467 1151.288086,327.529175 1151.288086,348.918091 
	C1168.859985,348.918091 1186.152344,349.151520 1203.432739,348.802673 
	C1210.298828,348.664062 1216.803955,346.346344 1222.806763,341.332031 
z"/>
<path fill="#FFFFFF" opacity="1.000000" stroke="none" 
	d="
M1678.000244,263.490417 
	C1697.825928,263.490753 1717.151611,263.477448 1736.477295,263.499268 
	C1742.653198,263.506256 1743.180054,263.962891 1743.112061,269.939880 
	C1742.924316,286.427063 1745.430786,283.877197 1729.226440,283.969543 
	C1706.569580,284.098663 1683.911255,284.002106 1661.253540,284.002106 
	C1659.443848,284.002106 1657.634033,284.002106 1655.550415,284.002106 
	C1655.550415,300.726166 1655.550415,317.129669 1655.550415,334.161774 
	C1657.400024,334.161774 1659.165649,334.161774 1660.931152,334.161774 
	C1683.922119,334.161774 1706.912964,334.154755 1729.903931,334.166504 
	C1736.089478,334.169647 1736.888428,334.910797 1736.859131,340.979126 
	C1736.784668,356.416229 1738.677124,354.990875 1723.103760,354.999298 
	C1702.278687,355.010590 1681.453491,355.002106 1660.628418,355.002106 
	C1659.002686,355.002106 1657.376831,355.002106 1655.513428,355.002106 
	C1655.513428,374.163025 1655.513428,392.900452 1655.513428,412.161774 
	C1657.493286,412.161774 1659.275024,412.161774 1661.056885,412.161774 
	C1686.213623,412.161774 1711.370361,412.154999 1736.527100,412.166473 
	C1742.824097,412.169342 1743.434692,412.716431 1743.391846,418.994354 
	C1743.285156,434.635376 1745.334595,432.971802 1729.714722,432.991241 
	C1699.726562,433.028564 1669.738403,433.007263 1639.750244,432.998016 
	C1633.265015,432.996033 1632.817139,432.574097 1632.815796,426.300598 
	C1632.805420,374.154541 1632.855835,322.008331 1632.729248,269.862579 
	C1632.717773,265.130371 1634.184082,263.328522 1639.017456,263.414093 
	C1651.841431,263.641174 1664.672241,263.490692 1678.000244,263.490417 
z"/>
<path fill="#FFFFFF" opacity="1.000000" stroke="none" 
	d="
M2010.783936,334.805389 
	C2009.675781,336.056702 2008.808350,337.046600 2007.750122,338.254242 
	C2020.742065,355.915344 2033.634521,373.445862 2046.532227,390.972473 
	C2055.211426,402.766663 2063.939697,414.525146 2072.527832,426.385284 
	C2073.591797,427.854767 2073.925781,429.852997 2074.597900,431.606262 
	C2072.738281,432.071625 2070.899170,432.654205 2069.015869,432.983582 
	C2055.997314,435.260376 2047.447632,430.426025 2039.994141,418.995789 
	C2026.745605,398.678589 2011.546753,379.632935 1997.158081,360.059509 
	C1995.902710,358.351868 1994.604736,356.675568 1993.043701,354.610626 
	C1986.942383,361.407959 1980.979980,367.852356 1975.314941,374.548431 
	C1974.319580,375.725006 1974.297974,377.955261 1974.289795,379.701111 
	C1974.216431,395.359467 1974.114380,411.020172 1974.326172,426.676025 
	C1974.391235,431.490509 1972.622314,433.379059 1967.898438,433.044769 
	C1964.749268,432.821869 1961.571289,433.017670 1958.406372,432.999146 
	C1952.344360,432.963715 1951.794556,432.457153 1951.791138,426.480225 
	C1951.774414,397.161743 1951.782593,367.843292 1951.782349,338.524811 
	C1951.782227,315.703064 1951.772583,292.881287 1951.789062,270.059540 
	C1951.793457,263.929993 1952.198853,263.545929 1958.302734,263.495392 
	C1961.634155,263.467773 1964.978394,263.671265 1968.294800,263.446442 
	C1972.923950,263.132629 1974.343384,265.194916 1974.314941,269.655457 
	C1974.167603,292.809479 1974.246704,315.964905 1974.246948,339.119843 
	C1974.246948,340.747681 1974.247070,342.375549 1974.247070,345.392853 
	C1976.608154,342.797272 1978.227295,341.066589 1979.792969,339.288666 
	C2000.703857,315.540436 2021.666260,291.837097 2042.444946,267.973694 
	C2045.358398,264.627625 2048.386719,263.177124 2052.786377,263.409363 
	C2058.859863,263.729980 2064.963135,263.489777 2072.543945,263.489777 
	C2070.774170,266.501831 2070.072266,268.298676 2068.870361,269.651642 
	C2049.626221,291.315826 2030.318115,312.923492 2010.783936,334.805389 
z"/>
<path fill="#FFFFFF" opacity="1.000000" stroke="none" 
	d="
M1792.275391,296.282379 
	C1822.998291,255.683105 1878.846436,249.828201 1916.800415,282.835327 
	C1920.401123,285.966705 1921.089844,288.336243 1917.290771,291.632599 
	C1915.038452,293.586823 1912.985596,295.839264 1911.162964,298.204163 
	C1908.529907,301.620392 1906.019409,301.580444 1902.785767,298.969116 
	C1893.714478,291.643372 1883.562012,286.745331 1871.916382,284.739532 
	C1838.764771,279.029572 1806.372559,300.792297 1800.202637,333.888184 
	C1795.301025,360.180145 1801.627441,383.346558 1822.939209,400.705048 
	C1845.432007,419.025269 1878.498291,418.342224 1901.424438,399.839630 
	C1907.137451,395.229034 1907.135376,395.230743 1912.119141,400.474548 
	C1913.611206,402.044647 1915.121338,403.597565 1916.614136,405.166992 
	C1921.378784,410.176056 1921.368530,410.540924 1916.379761,414.998230 
	C1869.010010,457.321991 1792.919800,433.001923 1778.131714,370.628296 
	C1771.826904,344.035645 1775.987183,319.104553 1792.275391,296.282379 
z"/>
<path fill="#FFFFFF" opacity="1.000000" stroke="none" 
	d="
M2149.947266,373.000000 
	C2149.947266,343.199951 2149.947266,313.899902 2149.947266,284.004944 
	C2140.948730,284.004944 2132.184326,284.004974 2123.419922,284.004944 
	C2117.754883,284.004944 2112.086426,283.880676 2106.426270,284.048706 
	C2102.682617,284.159882 2100.777344,282.884766 2100.961182,278.891296 
	C2101.129639,275.233429 2101.024170,271.561615 2100.993652,267.896332 
	C2100.969727,265.002930 2102.429443,263.608276 2105.247803,263.516632 
	C2106.246582,263.484161 2107.247070,263.485992 2108.246582,263.485962 
	C2143.569336,263.484497 2178.892090,263.479950 2214.214844,263.488800 
	C2220.968018,263.490479 2221.418701,263.878113 2221.369385,270.471985 
	C2221.249756,286.451019 2223.209473,283.814117 2207.921631,283.979889 
	C2196.289551,284.106018 2184.655273,284.004944 2172.803223,284.004944 
	C2172.803223,326.791077 2172.803223,369.194702 2172.803223,412.158020 
	C2182.977051,412.158020 2193.090332,412.157928 2203.203369,412.158081 
	C2207.535400,412.158142 2211.869141,412.236145 2216.198975,412.134888 
	C2219.746094,412.051910 2221.469482,413.584534 2221.395264,417.180450 
	C2221.329834,420.344818 2221.186279,423.526703 2221.428467,426.673798 
	C2221.798340,431.481873 2219.727539,433.116089 2215.011719,433.073029 
	C2196.685547,432.905792 2178.356934,433.004944 2160.029053,433.004944 
	C2142.534180,433.004944 2125.039551,433.019653 2107.544678,432.996704 
	C2101.713379,432.989075 2100.961426,432.252625 2101.009521,426.321594 
	C2101.138916,410.444519 2098.921631,412.225281 2115.040771,412.166199 
	C2126.505615,412.124176 2137.970947,412.158020 2149.947266,412.158020 
	C2149.947266,399.054565 2149.947266,386.277283 2149.947266,373.000000 
z"/>
<path fill="#FFFFFF" opacity="1.000000" stroke="none" 
	d="
M797.800171,284.999908 
	C797.800171,246.540848 797.800171,208.581833 797.800171,170.371857 
	C804.267029,170.371857 810.365906,170.371857 816.844849,170.371857 
	C816.844849,287.688049 816.844849,405.034454 816.844849,522.632446 
	C810.754578,522.632446 804.654480,522.632446 797.800171,522.632446 
	C797.800171,443.611847 797.800171,364.555878 797.800171,284.999908 
z"/>
<path fill="#FFFFFF" opacity="1.000000" stroke="none" 
	d="
M1587.935303,412.162598 
	C1601.305176,412.072205 1600.017700,411.575317 1600.026367,423.752411 
	C1600.026978,424.752350 1599.927002,425.763855 1600.042725,426.750214 
	C1600.623657,431.702423 1598.153564,433.321136 1593.562744,433.038696 
	C1590.408203,432.844635 1587.232178,433.001526 1584.065674,433.001526 
	C1555.401001,433.001526 1526.736328,433.004150 1498.071655,432.999695 
	C1490.927002,432.998596 1490.571167,432.680023 1490.569824,425.805664 
	C1490.559570,373.975983 1490.559082,322.146271 1490.570312,270.316589 
	C1490.571655,263.984192 1491.056030,263.532898 1497.398193,263.494995 
	C1500.564453,263.476105 1503.745728,263.686646 1506.894043,263.448547 
	C1511.735352,263.082397 1513.207275,265.158813 1513.183228,269.900940 
	C1513.022827,301.564545 1513.099854,333.229401 1513.099609,364.893829 
	C1513.099487,378.892853 1513.098755,392.891846 1513.098267,406.890869 
	C1513.098145,408.515991 1513.098267,410.141113 1513.098267,412.162567 
	C1538.198608,412.162567 1562.822876,412.162567 1587.935303,412.162598 
z"/>
<path fill="#FFFFFF" opacity="1.000000" stroke="none" 
	d="
M58.000023,404.110474 
	C65.817719,404.110657 73.136147,404.044739 80.452927,404.126923 
	C90.759705,404.242645 98.506866,411.646454 98.641693,421.382141 
	C98.778000,431.224579 90.824295,438.906799 80.289970,438.944458 
	C64.324303,439.001556 48.358158,438.996277 32.392441,438.946472 
	C21.707853,438.913177 13.958294,431.489838 14.000396,421.472778 
	C14.042303,411.501648 21.817289,404.192566 32.553410,404.122437 
	C40.868618,404.068146 49.184464,404.110870 58.000023,404.110474 
z"/>
<path fill="#FFFFFF" opacity="1.000000" stroke="none" 
	d="
M273.027527,21.682646 
	C280.181702,25.625595 283.026154,31.480976 282.963165,39.164257 
	C282.836151,54.650040 282.950073,70.137650 282.916992,85.624405 
	C282.893463,96.642838 275.379242,104.770264 265.457520,104.605728 
	C255.218826,104.435928 248.096893,96.652847 248.076355,85.523346 
	C248.047791,70.036575 248.044540,54.549660 248.076340,39.062901 
	C248.105759,24.733847 259.072540,16.930662 273.027527,21.682646 
z"/>
<path fill="#FFFFFF" opacity="1.000000" stroke="none" 
	d="
M276.783417,668.858032 
	C270.498505,673.693542 263.995636,674.463684 257.338562,670.945374 
	C250.850006,667.516174 248.059418,661.717712 248.065445,654.469421 
	C248.078598,638.650818 248.018005,622.832031 248.088593,607.013733 
	C248.136658,596.242859 255.477478,588.448486 265.422546,588.394531 
	C275.351868,588.340637 282.846558,596.154297 282.902588,606.864075 
	C282.985321,622.682251 282.896881,638.501160 282.940155,654.319641 
	C282.955475,659.933228 281.226410,664.761475 276.783417,668.858032 
z"/>
<path fill="#FFFFFF" opacity="1.000000" stroke="none" 
	d="
M611.004883,254.040894 
	C623.809753,254.040649 636.115967,253.997894 648.421753,254.052856 
	C659.352173,254.101669 667.031372,261.237915 667.050415,271.235046 
	C667.070190,281.622009 659.475830,288.842651 648.354309,288.876038 
	C632.556213,288.923431 616.757629,288.937103 600.959595,288.872070 
	C590.263489,288.828033 582.522949,281.408997 582.550049,271.415161 
	C582.577271,261.406860 590.310730,254.128693 601.027039,254.044800 
	C604.186523,254.020050 607.346313,254.040924 611.004883,254.040894 
z"/>
<path fill="#FFFFFF" opacity="1.000000" stroke="none" 
	d="
M14.021399,270.234070 
	C16.127459,259.192535 22.287445,254.069580 33.126930,254.048172 
	C48.603176,254.017593 64.079597,254.012451 79.555809,254.050568 
	C90.652016,254.077881 98.629143,261.382324 98.645790,271.426361 
	C98.662430,281.466309 90.659935,288.854095 79.629845,288.880035 
	C63.987213,288.916840 48.344131,288.949127 32.701813,288.869995 
	C21.365488,288.812653 14.404663,281.943451 14.021399,270.234070 
z"/>
<path fill="#FFFFFF" opacity="1.000000" stroke="none" 
	d="
M398.161743,60.999969 
	C398.161682,53.183289 398.087250,45.865673 398.179077,38.550152 
	C398.315369,27.692762 405.533234,20.033165 415.523102,19.995636 
	C425.769196,19.957148 432.963165,27.674763 432.991821,38.858295 
	C433.031921,54.489277 433.035309,70.120537 432.988983,85.751488 
	C432.956268,96.783707 425.515411,104.730309 415.459381,104.608208 
	C405.514160,104.487450 398.296326,96.755959 398.180481,85.944145 
	C398.093201,77.796959 398.162262,69.648087 398.161743,60.999969 
z"/>
<path fill="#FFFFFF" opacity="1.000000" stroke="none" 
	d="
M657.032593,437.345459 
	C653.758667,438.004791 650.834167,438.868469 647.902222,438.894562 
	C632.422058,439.032410 616.939880,438.980530 601.458557,438.951965 
	C590.360596,438.931488 582.510498,431.649994 582.545898,421.488403 
	C582.581360,411.335358 590.425415,404.142303 601.584351,404.118927 
	C617.065674,404.086517 632.547241,404.080048 648.028564,404.120789 
	C657.531128,404.145813 664.348022,408.949432 666.553955,417.030548 
	C668.696228,424.878387 665.321899,432.282349 657.032593,437.345459 
z"/>
<path fill="#FFFFFF" opacity="1.000000" stroke="none" 
	d="
M398.161743,624.000061 
	C398.162720,617.846313 398.064392,612.190430 398.186005,606.539246 
	C398.414917,595.903625 406.079437,588.150635 415.976166,588.393982 
	C425.755585,588.634521 432.934967,596.296631 432.981659,606.767029 
	C433.052887,622.730347 433.051758,638.694458 432.984253,654.657837 
	C432.939606,665.213867 425.808838,672.827759 416.004822,673.003113 
	C405.943512,673.183044 398.363647,665.626648 398.196411,654.930176 
	C398.037903,644.789124 398.161987,634.643555 398.161743,624.000061 
z"/>
<path fill="none" opacity="1.000000" stroke="none" 
	d="
M361.000061,175.836746 
	C392.495270,175.838226 423.491760,175.667679 454.485352,175.891586 
	C483.081116,176.098175 505.732910,195.351837 510.514465,223.148102 
	C511.160828,226.905441 511.437073,230.771713 511.439758,234.587845 
	C511.492371,309.076355 511.541931,383.564972 511.446716,458.053375 
	C511.410461,486.433899 495.359619,508.149567 469.136841,515.264221 
	C463.918671,516.679993 458.287140,517.078125 452.844940,517.086426 
	C378.023315,517.200073 303.201385,517.201416 228.379623,517.144653 
	C197.770126,517.121399 175.336578,498.148621 170.289413,468.133911 
	C169.768982,465.038940 169.854691,461.822632 169.853775,458.662567 
	C169.831955,383.840759 169.799042,309.018921 169.855621,234.197159 
	C169.878006,204.594833 189.001862,181.258286 217.069153,176.547470 
	C221.306381,175.836288 225.698730,175.869339 230.019669,175.864761 
	C273.513092,175.818741 317.006592,175.836746 361.000061,175.836746 
M318.499725,449.525299 
	C353.654510,449.524902 388.809326,449.562958 423.964020,449.503845 
	C436.816620,449.482239 443.809113,442.542084 443.819733,429.773346 
	C443.865906,374.292053 443.862793,318.810638 443.822144,263.329315 
	C443.812714,250.493927 436.883667,243.509949 424.066742,243.498077 
	C368.418854,243.446564 312.770813,243.450729 257.122894,243.494568 
	C244.144699,243.504791 237.502075,250.192123 237.492691,263.226532 
	C237.452728,318.707855 237.454559,374.189240 237.491013,429.670593 
	C237.499725,442.918335 244.165421,449.482910 257.519897,449.512939 
	C277.513092,449.557922 297.506409,449.525024 318.499725,449.525299 
z"/>
<path fill="none" opacity="1.000000" stroke="none" 
	d="
M1399.818726,405.877075 
	C1369.896240,422.159760 1335.150146,414.821808 1315.739746,388.359772 
	C1296.427246,362.030914 1299.237793,323.209198 1322.846313,301.127472 
	C1341.622681,283.565338 1363.957642,278.216644 1388.463745,286.726929 
	C1412.776245,295.170013 1427.020142,313.082825 1430.826660,338.276489 
	C1435.167358,367.006897 1424.790405,389.790344 1399.818726,405.877075 
z"/>
<path fill="none" opacity="1.000000" stroke="none" 
	d="
M1222.537231,341.576660 
	C1216.803955,346.346344 1210.298828,348.664062 1203.432739,348.802673 
	C1186.152344,349.151520 1168.859985,348.918091 1151.288086,348.918091 
	C1151.288086,327.529175 1151.288086,306.122467 1151.288086,284.298737 
	C1152.322021,284.212860 1153.576050,284.020142 1154.830322,284.018188 
	C1168.645264,283.996521 1182.461304,283.902252 1196.274292,284.065308 
	C1200.572632,284.116028 1204.952026,284.479034 1209.139526,285.401581 
	C1221.861450,288.204376 1228.327881,295.052826 1230.250488,308.055328 
	C1232.017212,320.003082 1231.756836,331.690796 1222.537231,341.576660 
z"/>
<path fill="#FFFFFF" opacity="1.000000" stroke="none" 
	d="
M317.999695,449.525269 
	C297.506409,449.525024 277.513092,449.557922 257.519897,449.512939 
	C244.165421,449.482910 237.499725,442.918335 237.491013,429.670593 
	C237.454559,374.189240 237.452728,318.707855 237.492691,263.226532 
	C237.502075,250.192123 244.144699,243.504791 257.122894,243.494568 
	C312.770813,243.450729 368.418854,243.446564 424.066742,243.498077 
	C436.883667,243.509949 443.812714,250.493927 443.822144,263.329315 
	C443.862793,318.810638 443.865906,374.292053 443.819733,429.773346 
	C443.809113,442.542084 436.816620,449.482239 423.964020,449.503845 
	C388.809326,449.562958 353.654510,449.524902 317.999695,449.525269 
M408.996338,290.514404 
	C408.996338,286.441742 408.996338,282.369080 408.996338,278.423096 
	C362.966187,278.423096 317.730377,278.423096 272.529053,278.423096 
	C272.529053,324.021881 272.529053,369.369965 272.529053,414.572418 
	C318.128143,414.572418 363.371216,414.572418 408.996338,414.572418 
	C408.996338,373.383148 408.996338,332.446960 408.996338,290.514404 
z"/>
<path fill="none" opacity="1.000000" stroke="none" 
	d="
M408.996338,291.012573 
	C408.996338,332.446960 408.996338,373.383148 408.996338,414.572418 
	C363.371216,414.572418 318.128143,414.572418 272.529053,414.572418 
	C272.529053,369.369965 272.529053,324.021881 272.529053,278.423096 
	C317.730377,278.423096 362.966187,278.423096 408.996338,278.423096 
	C408.996338,282.369080 408.996338,286.441742 408.996338,291.012573 
z"/>
</svg>