<svg version="1.1" id="Layer_1" xmlns="http://www.w3.org/2000/svg" xmlns:xlink="http://www.w3.org/1999/xlink" x="0px" y="0px"
	 width="100%" viewBox="0 0 2347 835" enable-background="new 0 0 2347 835" xml:space="preserve">
<path fill="none" opacity="1.000000" stroke="none" 
	d="
M1766.000000,836.000000 
	C1177.333496,836.000000 589.166870,836.000000 1.000237,836.000000 
	C1.000158,557.666809 1.000158,279.333649 1.000079,1.000232 
	C1.833178,1.000000 2.666356,1.000000 3.499534,1.000000 
	C784.999390,1.000000 1566.499146,1.000000 2347.999268,1.000000 
	C2347.999512,279.332977 2347.999512,557.665955 2347.999756,835.999512 
	C2154.166748,836.000000 1960.333374,836.000000 1766.000000,836.000000 
M150.802078,285.454773 
	C153.145325,286.314697 155.502975,287.137482 157.829758,288.039825 
	C297.474091,342.195587 437.133728,396.312073 576.739990,450.565887 
	C599.366394,459.358917 622.822937,466.446045 643.629822,479.288177 
	C660.617065,489.772827 676.925781,501.357758 693.519592,512.478394 
	C707.578796,521.900391 721.615417,531.356140 735.642395,540.783691 
	C740.419373,534.402710 738.773560,524.599182 732.310791,519.772888 
	C699.347900,495.156769 666.415588,470.498901 633.325562,446.054688 
	C628.834534,442.737030 623.746399,439.953247 618.546692,437.909851 
	C516.474792,397.797363 414.338623,357.848480 312.230377,317.828461 
	C256.445862,295.964386 200.763504,273.804230 142.668350,258.581482 
	C137.931778,257.340363 132.831375,256.850159 127.931557,257.005493 
	C118.449898,257.306122 108.989723,258.302887 99.522446,259.034393 
	C81.418114,260.433197 63.310291,261.792664 45.218151,263.335358 
	C43.224670,263.505310 40.141899,264.272522 39.589638,265.603241 
	C37.466057,270.720184 36.166737,276.179169 34.425156,281.958038 
	C36.455936,282.060120 37.589127,282.156403 38.723206,282.168335 
	C69.887154,282.496368 101.052750,282.718781 132.213837,283.221741 
	C138.159134,283.317688 144.086655,284.515228 150.802078,285.454773 
M174.209351,322.314545 
	C173.429932,322.025085 172.656509,321.718201 171.870239,321.448761 
	C158.224365,316.772247 145.392761,309.581604 130.658310,308.264618 
	C121.205559,307.419739 111.768372,306.400940 102.323860,305.463531 
	C77.986282,303.047791 53.648514,300.633972 28.643187,298.153168 
	C26.965860,303.915344 25.333403,309.523346 23.608557,315.448761 
	C49.494888,320.414398 74.526924,324.998962 99.458115,330.078461 
	C114.904350,333.225525 130.844116,335.416107 145.459488,340.949158 
	C295.305023,397.677246 444.956757,454.918365 594.576050,512.242004 
	C619.871338,521.933411 644.987915,532.174011 669.742188,543.163086 
	C684.607361,549.762146 698.639099,558.250061 712.979431,566.011230 
	C716.182800,567.744934 718.350525,567.703064 720.330017,564.239441 
	C722.369690,560.670349 724.929932,557.398682 727.505310,553.642517 
	C726.003418,552.576477 724.874573,551.666504 723.646301,550.919861 
	C706.011169,540.198853 688.276123,529.639099 670.744629,518.751526 
	C656.723083,510.043762 642.331299,502.349854 626.820618,496.405670 
	C476.118866,438.652008 325.527588,380.610168 174.209351,322.314545 
M511.363312,506.164856 
	C422.830444,472.611511 334.323547,438.989349 245.755493,405.529114 
	C187.561798,383.544037 130.108566,359.429474 69.505852,344.336151 
	C53.567013,340.366516 37.831703,335.579712 21.479061,331.022156 
	C21.479061,335.991882 21.772449,340.469208 21.386280,344.887146 
	C21.077070,348.424652 22.566103,349.803558 25.625700,350.938538 
	C52.484066,360.901855 79.301811,370.975037 106.113892,381.062775 
	C274.154388,444.285919 442.188507,507.526001 610.229492,570.747925 
	C637.905823,581.160583 665.605530,591.511169 693.511292,601.971680 
	C697.894287,595.774048 702.205200,589.678223 706.849182,583.111450 
	C694.000977,577.386658 681.623352,571.220947 668.779663,566.262756 
	C616.624268,546.128662 564.325806,526.365234 511.363312,506.164856 
M329.938324,296.522949 
	C423.160400,333.205109 516.391968,369.863312 609.573059,406.649231 
	C613.684692,408.272400 617.710632,410.598938 621.143738,413.379242 
	C655.580505,441.267883 689.875000,469.332092 724.244995,497.303406 
	C726.869629,499.439453 729.763306,501.245026 732.867554,503.441772 
	C733.465149,491.712952 729.946228,483.218567 721.174927,475.699615 
	C684.876587,444.583984 649.225281,412.714600 613.110840,381.382050 
	C608.309326,377.216309 602.560608,373.679474 596.664368,371.309753 
	C533.975342,346.115051 471.195221,321.146088 408.377869,296.272278 
	C386.728333,287.699738 365.369690,277.953064 343.075165,271.529999 
	C271.460480,250.897705 199.488037,231.503952 127.586548,211.878082 
	C122.797775,210.570953 117.194481,210.203201 112.405609,211.300125 
	C93.120079,215.717621 74.000832,220.863510 54.840275,225.818115 
	C53.691292,226.115219 52.082329,226.869888 51.765762,227.784775 
	C49.792744,233.486694 48.127167,239.294998 46.239307,245.461258 
	C47.913754,245.618607 48.884590,245.911011 49.784130,245.764771 
	C69.162910,242.614731 88.619247,239.851913 107.876862,236.076981 
	C121.346497,233.436630 134.249863,233.789673 147.134216,238.499786 
	C152.120010,240.322433 157.341095,241.492142 162.423843,243.060242 
	C218.190399,260.265137 275.584015,272.363586 329.938324,296.522949 
M1049.999023,402.500000 
	C1049.999023,437.666168 1050.063110,472.832550 1049.922729,507.998169 
	C1049.903931,512.706055 1051.421265,514.810486 1056.229370,514.548828 
	C1060.051270,514.340820 1063.893555,514.520813 1067.726807,514.504517 
	C1074.714233,514.474854 1075.101196,514.100830 1075.102173,507.184082 
	C1075.108032,465.851562 1075.105103,424.519043 1075.105103,383.186523 
	C1075.105103,366.186859 1075.023804,349.186523 1075.160156,332.187927 
	C1075.195557,327.767700 1073.718140,325.732910 1069.066772,325.939301 
	C1063.411377,326.190247 1057.723389,326.235657 1052.073730,325.925629 
	C1047.373047,325.667664 1044.849121,327.484467 1043.064575,331.864594 
	C1029.467773,365.236908 1015.678345,398.530914 1001.932495,431.842499 
	C994.544983,449.745392 987.125305,467.635010 979.463806,486.149994 
	C977.781738,482.141571 976.359009,478.787292 974.964172,475.421417 
	C955.192566,427.709961 935.375427,380.017181 915.736328,332.251221 
	C913.885620,327.749878 911.465515,325.601410 906.461609,325.916962 
	C900.817505,326.272919 895.130005,326.125427 889.468384,325.957458 
	C885.337585,325.834900 883.793152,327.673859 883.888489,331.667725 
	C884.035583,337.830750 883.926758,343.999908 883.926758,350.166443 
	C883.926758,402.665405 883.923279,455.164398 883.931519,507.663361 
	C883.932556,513.915833 884.484436,514.451843 890.771851,514.502014 
	C894.438232,514.531250 898.105042,514.523071 901.771606,514.504028 
	C908.576843,514.468750 909.022339,514.016907 909.023254,507.024475 
	C909.028931,465.191956 909.026733,423.359467 909.027100,381.526947 
	C909.027100,379.979492 909.027100,378.432007 909.027100,376.884552 
	C910.396240,378.136566 911.034729,379.424347 911.589233,380.747345 
	C928.406616,420.874420 945.101135,461.053467 962.082092,501.111176 
	C968.946106,517.303284 964.509521,514.167419 981.842834,514.505859 
	C982.509155,514.518860 983.192322,514.412109 983.840149,514.522522 
	C989.196899,515.435364 991.816772,512.958191 993.856506,508.028381 
	C1011.507324,465.367157 1029.408691,422.809509 1047.250610,380.227386 
	C1047.888672,378.704254 1048.684448,377.247101 1049.999023,374.538940 
	C1049.999023,384.506897 1049.999023,393.003448 1049.999023,402.500000 
M651.739380,636.763672 
	C653.640564,635.985168 655.714661,635.475098 657.412476,634.380981 
	C664.175354,630.022644 670.820984,625.482422 678.004028,620.679260 
	C675.829895,619.861145 674.590881,619.391907 673.349854,618.928345 
	C523.379578,562.911621 373.404755,506.906982 223.442108,450.869934 
	C189.931030,438.347717 156.017960,426.762360 123.098663,412.834259 
	C89.867058,398.774017 57.644924,382.328888 24.957836,366.976898 
	C23.596035,366.337280 22.003967,366.187958 19.995605,365.677002 
	C19.995605,369.884003 20.309931,373.397675 19.918337,376.830780 
	C19.394842,381.420288 21.190310,383.915039 25.205402,386.164581 
	C46.697239,398.205963 67.941071,410.689575 89.417229,422.759460 
	C101.001076,429.269775 112.373497,436.591064 124.706779,441.260498 
	C191.160980,466.420258 257.881256,490.877533 324.519714,515.550232 
	C433.358887,555.847473 542.205750,596.124084 651.739380,636.763672 
M241.019775,535.391052 
	C303.521729,558.246582 366.014618,581.127075 428.528290,603.950439 
	C486.482300,625.108948 544.456421,646.212341 602.437195,667.297241 
	C603.905884,667.831360 606.052795,668.640869 607.043396,668.007690 
	C614.406311,663.301575 621.556641,658.262939 629.602356,652.762024 
	C627.124573,651.627319 625.726807,650.870850 624.250549,650.327698 
	C463.582825,591.206055 302.952515,531.982117 142.180984,473.144043 
	C122.175751,465.822662 103.384605,456.914337 86.020958,444.468811 
	C66.140228,430.219147 45.523739,416.994965 25.191385,403.378296 
	C23.410456,402.185638 21.365536,401.387207 18.825384,400.090149 
	C18.825384,405.646393 18.531713,410.162262 18.959349,414.608826 
	C19.149899,416.590179 20.312960,419.044434 21.847462,420.245819 
	C48.331959,440.980896 74.894302,461.617828 101.584625,482.087158 
	C105.222694,484.877289 109.428520,487.222839 113.727524,488.809570 
	C155.869812,504.363983 198.087662,519.713623 241.019775,535.391052 
M293.079163,237.281464 
	C315.275024,243.173889 337.505493,248.939743 359.656860,254.994858 
	C381.154083,260.871185 403.170929,265.471771 423.904999,273.393036 
	C478.148102,294.116089 531.851501,316.257629 585.658813,338.107452 
	C591.391541,340.435394 597.118042,343.792358 601.614868,347.991791 
	C642.168274,385.862671 682.442810,424.032196 722.824524,462.087158 
	C723.925598,463.124786 725.312073,463.859680 727.184326,465.168304 
	C726.979004,453.665070 723.382019,444.935394 715.809509,437.401947 
	C676.823914,398.617371 637.984802,359.684753 599.242310,320.657074 
	C588.841003,310.179199 576.926208,302.305511 563.153870,297.118225 
	C554.589355,293.892426 546.037048,290.631714 537.520508,287.281677 
	C506.398041,275.039551 475.413696,262.410950 442.828674,254.373459 
	C414.748688,247.447189 386.637878,240.640167 358.613983,233.493088 
	C276.481842,212.546478 194.382034,191.472900 112.286850,170.381790 
	C107.416054,169.130432 103.020622,169.236725 98.309105,171.400696 
	C88.652618,175.835861 78.740448,179.712784 68.958542,183.878235 
	C67.637131,184.440948 65.708084,185.078049 65.338181,186.129990 
	C62.956760,192.902390 60.931080,199.799896 58.592831,207.282852 
	C74.217796,202.044388 88.917656,197.230682 103.528061,192.159286 
	C109.091293,190.228241 114.397949,190.067169 120.126030,191.590591 
	C177.487289,206.846313 234.889542,221.947906 293.079163,237.281464 
M176.994263,561.433044 
	C252.924530,588.720825 328.862579,615.987000 404.782288,643.304077 
	C455.012909,661.377869 505.211914,679.539551 555.454529,697.579834 
	C557.299500,698.242310 559.991028,698.922180 561.379333,698.085693 
	C568.895569,693.557617 576.125305,688.554077 583.763489,683.509766 
	C574.668579,680.197815 566.082764,677.061707 557.490356,673.943665 
	C408.770233,619.975952 260.036652,566.045227 111.377464,511.910248 
	C105.755394,509.862946 100.260056,506.531433 95.712807,502.625763 
	C72.084190,482.330811 48.792446,461.643921 25.351538,441.129913 
	C23.061556,439.125885 20.554398,437.370026 17.161358,434.731842 
	C17.161358,440.789307 16.870199,445.409943 17.286995,449.965820 
	C17.488493,452.168365 18.491594,454.782990 20.028740,456.305206 
	C43.467037,479.516052 66.907814,502.729401 90.731506,525.541687 
	C95.396309,530.008423 101.271088,533.851013 107.287407,536.153198 
	C130.123032,544.891357 153.245819,552.879150 176.994263,561.433044 
M1413.646851,514.187805 
	C1456.175537,502.584961 1485.440552,461.301147 1483.083008,416.235107 
	C1480.374268,364.457306 1440.045166,325.020355 1388.649902,323.890930 
	C1326.638794,322.528198 1279.612427,380.285553 1292.494019,441.027130 
	C1303.728638,494.002075 1357.606445,529.941956 1413.646851,514.187805 
M683.600098,369.891815 
	C648.469788,330.681702 613.295898,291.510468 578.271301,252.206161 
	C574.428894,247.894241 570.123352,245.243500 564.518799,243.925735 
	C417.867767,209.444397 271.244965,174.842667 124.586090,140.394684 
	C114.431335,138.009476 104.078224,136.320343 93.731590,134.959763 
	C88.119034,134.221710 82.507996,136.893387 80.117241,141.695984 
	C76.777870,148.404160 75.212631,155.995483 72.596947,164.113007 
	C75.423973,162.758835 77.517357,162.101700 79.213219,160.888763 
	C92.067360,151.695053 105.241875,152.538254 120.214996,156.275238 
	C232.623871,184.330246 345.245270,211.533020 457.778412,239.091370 
	C488.141296,246.526993 518.454468,254.169907 548.740784,261.911987 
	C563.404236,265.660400 575.413269,273.227203 585.958374,284.628418 
	C629.404175,331.601501 673.548706,377.928284 717.446899,424.482758 
	C718.358093,425.449097 719.395996,426.295929 720.486633,427.301697 
	C721.444946,416.001099 717.997253,407.139099 710.205261,399.347992 
	C701.028564,390.172333 692.743713,380.104675 683.600098,369.891815 
M1146.068604,451.547424 
	C1146.068604,449.282928 1146.068604,447.018433 1146.068604,444.507507 
	C1161.377319,444.507507 1176.036743,444.643097 1190.690430,444.412231 
	C1194.353760,444.354523 1196.297607,445.437469 1197.967163,448.732819 
	C1208.177368,468.886810 1218.715576,488.874817 1228.897949,509.042633 
	C1230.996094,513.198364 1233.568848,515.008545 1238.242310,514.589539 
	C1242.540894,514.204041 1246.901489,514.533875 1251.234375,514.500366 
	C1256.755371,514.457642 1257.517578,513.242065 1254.936890,508.287933 
	C1249.563721,497.973389 1244.104858,487.703491 1238.685669,477.412842 
	C1232.429688,465.533234 1226.178345,453.651184 1219.805054,441.542236 
	C1221.007568,441.186340 1221.786499,440.962616 1222.561035,440.724823 
	C1223.514160,440.432281 1224.466675,440.137115 1225.414307,439.827362 
	C1242.446655,434.259674 1253.396362,422.945251 1257.389893,405.376038 
	C1260.732666,390.669159 1260.442383,375.943604 1256.262939,361.413330 
	C1251.878296,346.169952 1241.814819,335.922791 1226.883179,331.339844 
	C1217.912109,328.586365 1208.373291,326.628662 1199.028931,326.349976 
	C1174.884033,325.629913 1150.705078,326.086578 1126.540405,325.954865 
	C1122.421875,325.932373 1120.818726,327.667358 1120.939331,331.659790 
	C1121.080200,336.321960 1120.972046,340.991699 1120.972046,345.658142 
	C1120.972046,399.655670 1120.968872,453.653229 1120.976562,507.650757 
	C1120.977539,513.902893 1121.538208,514.452087 1127.827148,514.501465 
	C1131.826782,514.532959 1135.836060,514.335632 1139.824219,514.551147 
	C1144.611572,514.809814 1146.198608,512.780090 1146.147461,508.037598 
	C1145.948242,489.540619 1146.068115,471.040161 1146.068604,451.547424 
M233.110153,604.467651 
	C189.395676,588.865173 145.631989,573.397461 102.031433,557.482849 
	C96.808411,555.576416 91.678741,551.985413 87.854652,547.909607 
	C64.947762,523.494995 42.426369,498.718536 19.822441,474.020660 
	C18.800354,472.903870 18.229437,471.374146 17.448389,470.036774 
	C16.963959,470.501343 16.479528,470.965942 15.995097,471.430511 
	C15.995097,476.581421 15.772844,481.746582 16.101936,486.876373 
	C16.238008,488.997498 17.070444,491.444427 18.408964,493.062531 
	C39.421261,518.464478 60.694061,543.651917 81.594841,569.144653 
	C86.782722,575.472290 92.951462,579.428955 100.564026,582.112854 
	C188.427872,613.090576 276.241974,644.209290 364.056244,675.327332 
	C413.119232,692.713440 462.152832,710.182373 511.227997,727.533752 
	C512.909058,728.128113 515.379456,728.642944 516.660339,727.856689 
	C523.555359,723.623840 530.190369,718.967407 538.327209,713.510071 
	C436.010040,676.974182 334.919220,640.876160 233.110153,604.467651 
M169.772980,652.680725 
	C217.205994,669.270081 264.633972,685.873779 312.073395,702.444763 
	C363.894989,720.546509 415.720886,738.636230 467.581848,756.624634 
	C469.347992,757.237183 471.960205,757.443909 473.416382,756.570312 
	C480.242706,752.474609 486.802124,747.934021 494.003815,743.192261 
	C490.734680,741.961792 487.974487,740.863831 485.174957,739.877625 
	C354.761597,693.935547 224.349106,647.990906 93.914177,602.110046 
	C88.050934,600.047668 83.400162,596.769714 79.624420,591.794312 
	C59.591316,565.396057 39.422386,539.100891 19.286449,512.780701 
	C18.184406,511.340210 16.956305,509.996185 15.786880,508.607239 
	C14.824251,513.004700 15.123959,516.830994 14.750180,520.590332 
	C14.256859,525.552002 15.957504,529.429199 18.787148,533.415710 
	C37.578800,559.890320 56.253265,586.449463 74.755234,613.127136 
	C78.649811,618.742676 83.538048,622.509033 89.877663,624.715942 
	C116.277718,633.906067 142.662842,643.139160 169.772980,652.680725 
M1751.500000,427.836060 
	C1764.833252,427.835999 1778.167847,427.729553 1791.499023,427.892822 
	C1796.242188,427.950897 1798.235962,426.080109 1797.939331,421.354218 
	C1797.730957,418.033997 1797.931763,414.689758 1797.892700,411.356903 
	C1797.824463,405.536804 1797.125122,404.841034 1791.142944,404.837524 
	C1764.976440,404.822113 1738.809937,404.830902 1712.643433,404.830902 
	C1710.889771,404.830902 1709.136108,404.830872 1707.424072,404.830872 
	C1707.424072,385.828033 1707.424072,367.571472 1707.424072,349.000488 
	C1709.505371,349.000488 1711.314453,349.000488 1713.123535,349.000488 
	C1740.956665,349.000488 1768.789917,349.001953 1796.623047,348.999542 
	C1804.545410,348.998871 1804.978149,348.550171 1804.981812,340.424988 
	C1804.982910,337.925018 1804.995850,335.424927 1804.979248,332.925079 
	C1804.937988,326.725220 1804.248657,326.005981 1798.116333,326.004333 
	C1761.783203,325.994537 1725.450195,325.995697 1689.117065,326.003021 
	C1682.559082,326.004333 1682.031738,326.533630 1682.031006,333.178650 
	C1682.024048,391.178284 1682.024536,449.177948 1682.030029,507.177582 
	C1682.030640,513.994568 1682.519409,514.487488 1689.463501,514.490295 
	C1720.630005,514.502869 1751.796509,514.495850 1782.963013,514.495789 
	C1788.296265,514.495789 1793.634033,514.362122 1798.961548,514.536865 
	C1803.312988,514.679565 1805.575317,513.207153 1805.192383,508.483368 
	C1804.937500,505.337494 1805.158691,502.153992 1805.146606,498.987366 
	C1805.120361,492.151550 1804.830933,491.837311 1798.150024,491.835022 
	C1769.650146,491.825317 1741.150391,491.830841 1712.650513,491.830841 
	C1710.895752,491.830841 1709.141113,491.830872 1707.386353,491.830872 
	C1707.386353,470.154114 1707.386353,449.217072 1707.386353,427.836060 
	C1721.916504,427.836060 1736.208252,427.836060 1751.500000,427.836060 
M685.046814,338.441254 
	C672.666321,323.389648 660.230957,308.382782 647.917664,293.276398 
	C627.502869,268.230988 607.219727,243.078201 586.757202,218.072067 
	C582.096924,212.377045 575.955383,208.820038 568.609375,207.432892 
	C563.227112,206.416580 557.880676,205.207092 552.526184,204.047333 
	C475.667389,187.400131 398.796204,170.809677 321.956238,154.075912 
	C254.212006,139.322937 186.503448,124.406219 118.774483,109.583046 
	C117.660378,109.339218 116.368378,108.998154 115.360275,109.323997 
	C107.272163,111.938248 99.232452,114.702202 91.177925,117.420349 
	C93.937447,119.334831 96.569008,120.216377 99.262184,120.825531 
	C255.657349,156.198914 412.054749,191.562469 568.469360,226.849640 
	C573.924805,228.080383 578.195862,230.613892 581.806458,234.866302 
	C624.923767,285.648224 668.108093,336.373230 711.302551,387.089569 
	C712.491272,388.485291 713.988159,389.618622 716.093079,391.571930 
	C715.398560,381.977417 713.497070,374.068665 708.333984,367.417389 
	C700.882263,357.817627 693.117249,348.461060 685.046814,338.441254 
M2098.751953,448.761047 
	C2113.605957,469.040619 2128.543213,489.260193 2143.236816,509.655304 
	C2145.875000,513.317322 2148.715576,514.926270 2153.208252,514.589478 
	C2158.014404,514.229187 2162.874268,514.641785 2167.699463,514.445068 
	C2169.729492,514.362244 2171.730713,513.581848 2173.745117,513.118530 
	C2172.969971,511.215240 2172.542725,509.058167 2171.367188,507.447083 
	C2155.273926,485.393005 2139.076172,463.415070 2122.906738,441.416656 
	C2115.058594,430.739136 2107.215820,420.057709 2099.284180,409.260406 
	C2102.088379,406.084381 2104.609375,403.215088 2107.145020,400.358978 
	C2127.390137,377.556305 2147.651367,354.768036 2167.844971,331.919952 
	C2168.853027,330.779205 2169.279785,329.124695 2169.977051,327.709351 
	C2168.375244,327.139099 2166.788086,326.132446 2165.168701,326.076935 
	C2159.342285,325.877228 2153.493164,326.220093 2147.675293,325.921234 
	C2143.744385,325.719299 2141.190186,327.300262 2138.704590,330.136963 
	C2114.216797,358.083618 2089.633057,385.946228 2065.062500,413.820129 
	C2064.291016,414.695404 2063.365234,415.434601 2062.047363,416.673157 
	C2062.047363,413.517548 2062.047363,411.187164 2062.047363,408.856781 
	C2062.047363,383.356964 2061.977539,357.856812 2062.110596,332.357697 
	C2062.135254,327.630798 2060.465332,325.601837 2055.657471,325.946655 
	C2052.009766,326.208313 2048.327881,325.995911 2044.661255,325.999054 
	C2037.191406,326.005463 2036.957397,326.223297 2036.956665,333.511963 
	C2036.952026,375.511627 2036.953125,417.511322 2036.952881,459.510986 
	C2036.952759,475.344208 2036.949341,491.177399 2036.956665,507.010620 
	C2036.959961,514.051636 2037.362061,514.468079 2044.161987,514.504700 
	C2047.828491,514.524475 2051.495361,514.532349 2055.161865,514.502869 
	C2061.446533,514.452271 2062.037842,513.876709 2062.042969,507.675140 
	C2062.057129,490.008606 2062.028809,472.342010 2062.083740,454.675629 
	C2062.088623,453.087006 2062.034912,451.037384 2062.929932,449.986176 
	C2069.364502,442.427124 2076.037354,435.070801 2082.963623,427.279999 
	C2088.305908,434.570038 2093.301514,441.386627 2098.751953,448.761047 
M1975.339233,481.904236 
	C1958.234985,493.049713 1939.581909,496.152252 1919.940063,491.334717 
	C1888.027710,483.507629 1867.709595,456.674652 1866.754395,422.066711 
	C1865.644165,381.843109 1895.649170,349.194275 1934.728882,348.248505 
	C1952.796387,347.811249 1968.708740,353.771698 1982.424561,365.409973 
	C1985.957886,368.408203 1988.540894,368.690430 1991.567749,364.943390 
	C1994.072632,361.842499 1996.934814,359.021851 1999.731689,356.168030 
	C2002.338135,353.508362 2002.359619,351.364655 1999.484619,348.636993 
	C1962.968628,313.993744 1902.208862,315.863190 1867.644043,352.789307 
	C1835.301025,387.341797 1831.674194,438.943848 1858.824829,478.264771 
	C1889.096191,522.105225 1952.585205,531.421631 1993.696899,497.981049 
	C2005.217529,488.610168 2003.700928,489.856476 1994.896851,480.577545 
	C1986.550049,471.780426 1988.020508,472.211639 1979.161133,479.139252 
	C1978.113770,479.958221 1977.003418,480.696564 1975.339233,481.904236 
M2205.151367,492.175873 
	C2204.438477,493.926880 2203.268311,495.637360 2203.108887,497.437378 
	C2202.786621,501.073608 2203.205811,504.771118 2202.965332,508.420044 
	C2202.659424,513.053955 2204.774902,514.641907 2209.177490,514.560913 
	C2217.670410,514.404724 2226.167969,514.515808 2234.663574,514.515808 
	C2266.480469,514.515808 2298.297607,514.527954 2330.114502,514.505249 
	C2336.356934,514.500793 2336.969482,513.831299 2337.002686,507.638245 
	C2337.015137,505.306183 2337.004639,502.973969 2337.004150,500.641846 
	C2337.002441,491.826019 2337.002441,491.825165 2328.096680,491.824738 
	C2313.142090,491.824036 2298.187500,491.824554 2282.956543,491.824554 
	C2282.956543,444.039093 2282.956543,396.690674 2282.956543,349.005219 
	C2284.834717,349.005219 2286.472656,349.005219 2288.110596,349.005219 
	C2302.270020,349.005188 2316.430176,348.923035 2330.588379,349.051605 
	C2335.267090,349.094055 2337.342529,347.260559 2337.049072,342.501862 
	C2336.823975,338.850922 2336.957520,335.174286 2337.016846,331.510468 
	C2337.075684,327.884857 2335.701416,325.955902 2331.742676,325.961334 
	C2290.597168,326.017731 2249.451660,326.017456 2208.306152,325.961304 
	C2204.388428,325.955963 2202.910645,327.777252 2202.998779,331.458984 
	C2203.074219,334.622223 2203.010498,337.788696 2203.013672,340.953735 
	C2203.021484,348.432556 2203.565430,348.999146 2210.865479,349.003082 
	C2224.691650,349.010498 2238.518066,349.005219 2252.344238,349.005219 
	C2253.961426,349.005219 2255.578613,349.005219 2257.124023,349.005219 
	C2257.124023,396.821808 2257.124023,444.079041 2257.124023,491.966339 
	C2239.933105,491.966339 2222.985840,491.966339 2205.151367,492.175873 
M709.389465,345.974213 
	C707.731201,341.704041 706.925110,336.798492 704.286438,333.259369 
	C666.963928,283.201691 629.376343,233.341812 591.914978,183.387451 
	C589.157166,179.709885 585.811157,177.654480 581.275574,176.739380 
	C535.478882,167.499756 489.720093,158.072250 443.932190,148.788788 
	C351.214325,129.990295 258.485748,111.244896 165.752640,92.521812 
	C164.520950,92.273125 163.071518,92.308685 161.894867,92.711517 
	C154.685501,95.179642 147.525574,97.792145 139.026550,100.829170 
	C142.222839,101.799950 144.171326,102.559441 146.190384,102.980309 
	C189.989792,112.110245 233.809555,121.142731 277.600250,130.314163 
	C372.351685,150.158707 467.028168,170.369873 561.892822,189.656326 
	C577.440857,192.817307 588.447754,199.423737 598.068604,212.118469 
	C633.269043,258.565460 669.491638,304.237976 705.362366,350.176331 
	C706.667664,351.847870 708.319580,353.248688 710.744263,355.732971 
	C710.194214,351.691284 709.860657,349.240265 709.389465,345.974213 
M12.284298,554.817261 
	C12.628660,558.244202 11.973270,562.217590 13.494749,565.001160 
	C19.311073,575.642456 24.840309,586.680725 32.302273,596.129150 
	C45.186871,612.443604 59.320759,627.783508 73.205185,643.286255 
	C76.013901,646.422363 79.810547,648.885498 83.545021,650.946106 
	C107.439133,664.130798 131.373764,677.246399 155.454132,690.086487 
	C162.466248,693.825500 169.837494,697.038086 177.321426,699.717285 
	C198.310944,707.231262 219.444046,714.344299 240.522522,721.609680 
	C301.699615,742.696289 362.875122,763.787354 424.067413,784.829712 
	C425.888000,785.455688 428.477966,786.509766 429.707123,785.747742 
	C436.552887,781.503845 443.089111,776.760559 450.407379,771.722595 
	C447.097839,770.516907 444.937714,769.697144 442.755859,768.939819 
	C324.397949,727.856445 206.044373,686.760437 87.661949,645.747742 
	C81.110367,643.478027 75.889778,639.980347 72.065857,634.064575 
	C54.084679,606.246826 35.965744,578.518066 17.841551,550.793091 
	C16.680857,549.017517 15.061042,547.542053 13.229581,545.438599 
	C12.887046,548.969299 12.646129,551.452515 12.284298,554.817261 
M516.205994,149.155457 
	C539.400635,153.717270 562.577087,158.375641 585.808899,162.739624 
	C589.405762,163.415268 591.698669,164.923309 593.788696,167.814133 
	C629.492859,217.197906 665.284851,266.518097 701.067627,315.845001 
	C701.961121,317.076752 702.968384,318.226013 703.922607,319.413727 
	C704.307373,319.199554 704.692078,318.985382 705.076782,318.771210 
	C704.397644,311.502747 703.699890,304.264771 699.243591,297.916931 
	C665.659973,250.077850 632.092957,202.227097 598.547119,154.361526 
	C595.606018,150.164856 591.709656,147.846176 586.658447,146.919022 
	C561.462036,142.294312 536.288452,137.544815 511.112732,132.807739 
	C414.493347,114.627769 317.877289,96.430214 221.256943,78.255463 
	C209.636810,76.069672 198.846329,78.060371 188.028381,85.113007 
	C297.800812,106.550934 406.581818,127.795235 516.205994,149.155457 
M1523.930786,330.915741 
	C1523.930176,389.902466 1523.925415,448.889160 1523.935059,507.875885 
	C1523.936035,513.853271 1524.520508,514.447205 1530.492676,514.481995 
	C1538.323853,514.527588 1546.155762,514.493408 1553.987305,514.493408 
	C1581.814331,514.493408 1609.641479,514.495972 1637.468506,514.491516 
	C1645.481079,514.490234 1645.785156,514.169250 1645.790894,505.954834 
	C1645.792480,503.622040 1645.806030,501.289093 1645.787964,498.956451 
	C1645.738159,492.491241 1645.100464,491.839417 1638.616577,491.837128 
	C1610.622925,491.827271 1582.629150,491.832642 1554.635498,491.832489 
	C1552.864014,491.832489 1551.092529,491.832520 1549.016602,491.832520 
	C1549.016602,489.441833 1549.016602,487.633759 1549.016602,485.825684 
	C1549.016846,435.503693 1549.016968,385.181732 1549.016968,334.859741 
	C1549.016968,333.526703 1549.015625,332.193695 1549.012451,330.860657 
	C1549.004761,327.612976 1547.507080,325.939728 1544.128052,325.985107 
	C1538.963623,326.054474 1533.765625,325.684021 1528.650146,326.190063 
	C1526.977417,326.355530 1525.517456,328.670349 1523.930786,330.915741 
M250.392212,62.619366 
	C244.921692,64.589851 239.451157,66.560333 233.980637,68.530815 
	C235.697266,69.825638 237.018875,69.997940 238.328232,70.237312 
	C356.088898,91.766426 473.843842,113.327240 591.628967,134.721603 
	C595.659546,135.453705 598.037415,137.167648 600.240906,140.421356 
	C631.787720,187.003769 663.446228,233.510620 695.089966,280.027374 
	C696.134949,281.563568 697.307434,283.013000 698.792969,285.001434 
	C698.336304,274.636047 695.072937,265.987244 689.887756,258.065521 
	C661.074219,214.045715 632.168396,170.086243 603.416565,126.026283 
	C600.942383,122.234871 597.479858,120.843620 593.512451,120.149971 
	C551.227905,112.757088 508.918762,105.503952 466.643250,98.059692 
	C405.035980,87.211319 343.469086,76.131882 281.837708,65.423286 
	C271.754028,63.671223 261.427216,63.318371 250.392212,62.619366 
M605.445068,113.981361 
	C623.790405,142.536148 642.135742,171.090927 660.481079,199.645706 
	C661.555725,198.694305 661.788086,198.080048 661.610291,197.626648 
	C659.550293,192.374252 657.585876,187.076157 655.296753,181.923172 
	C642.266846,152.591003 624.108887,126.211334 607.295837,99.064484 
	C606.420166,97.650658 604.263672,96.516258 602.538208,96.222321 
	C585.965637,93.399254 569.346863,90.849083 552.761292,88.100037 
	C470.864227,74.525665 388.974854,60.904282 307.077972,47.328587 
	C296.265961,45.536320 286.613617,48.835636 276.548340,54.378197 
	C318.526978,61.490921 359.527069,68.423981 400.522034,75.387070 
	C466.491882,86.592209 532.463989,97.784805 598.403748,109.164169 
	C600.788940,109.575783 602.842834,111.907745 605.445068,113.981361 
M446.185608,50.356808 
	C415.910675,45.034847 385.619324,39.803757 355.368561,34.347767 
	C342.644714,32.052910 330.377380,32.352306 318.751984,38.504360 
	C318.698517,39.019119 318.645050,39.533878 318.591583,40.048637 
	C415.599091,55.476265 512.606567,70.903893 610.134277,86.414246 
	C609.403992,81.347931 606.134277,81.570580 603.541443,81.057785 
	C587.245850,77.835022 570.934204,74.693878 554.627625,71.526924 
	C518.752686,64.559555 482.877655,57.592888 446.185608,50.356808 
M284.949768,757.518738 
	C282.986542,757.352722 281.023346,757.186768 277.692505,756.905151 
	C279.549927,758.150452 280.058716,758.552856 280.619995,758.859070 
	C309.468475,774.599731 338.268921,790.429993 367.220001,805.979797 
	C372.728790,808.938660 378.821136,810.820557 384.678711,813.111328 
	C385.695984,813.509094 387.231018,814.001526 387.941925,813.543091 
	C394.514313,809.304565 400.958160,804.866760 408.470703,799.789978 
	C401.458923,797.376038 395.855103,795.435852 390.244019,793.516968 
	C355.400909,781.601318 320.556213,769.690430 284.949768,757.518738 
z"/>
<path fill="#FFFFFF" opacity="1.000000" stroke="none" 
	d="
M150.412231,285.329651 
	C144.086655,284.515228 138.159134,283.317688 132.213837,283.221741 
	C101.052750,282.718781 69.887154,282.496368 38.723206,282.168335 
	C37.589127,282.156403 36.455936,282.060120 34.425156,281.958038 
	C36.166737,276.179169 37.466057,270.720184 39.589638,265.603241 
	C40.141899,264.272522 43.224670,263.505310 45.218151,263.335358 
	C63.310291,261.792664 81.418114,260.433197 99.522446,259.034393 
	C108.989723,258.302887 118.449898,257.306122 127.931557,257.005493 
	C132.831375,256.850159 137.931778,257.340363 142.668350,258.581482 
	C200.763504,273.804230 256.445862,295.964386 312.230377,317.828461 
	C414.338623,357.848480 516.474792,397.797363 618.546692,437.909851 
	C623.746399,439.953247 628.834534,442.737030 633.325562,446.054688 
	C666.415588,470.498901 699.347900,495.156769 732.310791,519.772888 
	C738.773560,524.599182 740.419373,534.402710 735.642395,540.783691 
	C721.615417,531.356140 707.578796,521.900391 693.519592,512.478394 
	C676.925781,501.357758 660.617065,489.772827 643.629822,479.288177 
	C622.822937,466.446045 599.366394,459.358917 576.739990,450.565887 
	C437.133728,396.312073 297.474091,342.195587 157.829758,288.039825 
	C155.502975,287.137482 153.145325,286.314697 150.412231,285.329651 
z"/>
<path fill="#FFFFFF" opacity="1.000000" stroke="none" 
	d="
M174.557083,322.482513 
	C325.527588,380.610168 476.118866,438.652008 626.820618,496.405670 
	C642.331299,502.349854 656.723083,510.043762 670.744629,518.751526 
	C688.276123,529.639099 706.011169,540.198853 723.646301,550.919861 
	C724.874573,551.666504 726.003418,552.576477 727.505310,553.642517 
	C724.929932,557.398682 722.369690,560.670349 720.330017,564.239441 
	C718.350525,567.703064 716.182800,567.744934 712.979431,566.011230 
	C698.639099,558.250061 684.607361,549.762146 669.742188,543.163086 
	C644.987915,532.174011 619.871338,521.933411 594.576050,512.242004 
	C444.956757,454.918365 295.305023,397.677246 145.459488,340.949158 
	C130.844116,335.416107 114.904350,333.225525 99.458115,330.078461 
	C74.526924,324.998962 49.494888,320.414398 23.608557,315.448761 
	C25.333403,309.523346 26.965860,303.915344 28.643187,298.153168 
	C53.648514,300.633972 77.986282,303.047791 102.323860,305.463531 
	C111.768372,306.400940 121.205559,307.419739 130.658310,308.264618 
	C145.392761,309.581604 158.224365,316.772247 171.870239,321.448761 
	C172.656509,321.718201 173.429932,322.025085 174.557083,322.482513 
z"/>
<path fill="#FFFFFF" opacity="1.000000" stroke="none" 
	d="
M511.721741,506.314972 
	C564.325806,526.365234 616.624268,546.128662 668.779663,566.262756 
	C681.623352,571.220947 694.000977,577.386658 706.849182,583.111450 
	C702.205200,589.678223 697.894287,595.774048 693.511292,601.971680 
	C665.605530,591.511169 637.905823,581.160583 610.229492,570.747925 
	C442.188507,507.526001 274.154388,444.285919 106.113892,381.062775 
	C79.301811,370.975037 52.484066,360.901855 25.625700,350.938538 
	C22.566103,349.803558 21.077070,348.424652 21.386280,344.887146 
	C21.772449,340.469208 21.479061,335.991882 21.479061,331.022156 
	C37.831703,335.579712 53.567013,340.366516 69.505852,344.336151 
	C130.108566,359.429474 187.561798,383.544037 245.755493,405.529114 
	C334.323547,438.989349 422.830444,472.611511 511.721741,506.314972 
z"/>
<path fill="#FFFFFF" opacity="1.000000" stroke="none" 
	d="
M329.588745,296.359589 
	C275.584015,272.363586 218.190399,260.265137 162.423843,243.060242 
	C157.341095,241.492142 152.120010,240.322433 147.134216,238.499786 
	C134.249863,233.789673 121.346497,233.436630 107.876862,236.076981 
	C88.619247,239.851913 69.162910,242.614731 49.784130,245.764771 
	C48.884590,245.911011 47.913754,245.618607 46.239307,245.461258 
	C48.127167,239.294998 49.792744,233.486694 51.765762,227.784775 
	C52.082329,226.869888 53.691292,226.115219 54.840275,225.818115 
	C74.000832,220.863510 93.120079,215.717621 112.405609,211.300125 
	C117.194481,210.203201 122.797775,210.570953 127.586548,211.878082 
	C199.488037,231.503952 271.460480,250.897705 343.075165,271.529999 
	C365.369690,277.953064 386.728333,287.699738 408.377869,296.272278 
	C471.195221,321.146088 533.975342,346.115051 596.664368,371.309753 
	C602.560608,373.679474 608.309326,377.216309 613.110840,381.382050 
	C649.225281,412.714600 684.876587,444.583984 721.174927,475.699615 
	C729.946228,483.218567 733.465149,491.712952 732.867554,503.441772 
	C729.763306,501.245026 726.869629,499.439453 724.244995,497.303406 
	C689.875000,469.332092 655.580505,441.267883 621.143738,413.379242 
	C617.710632,410.598938 613.684692,408.272400 609.573059,406.649231 
	C516.391968,369.863312 423.160400,333.205109 329.588745,296.359589 
z"/>
<path fill="#FFFFFF" opacity="1.000000" stroke="none" 
	d="
M1049.999023,402.000000 
	C1049.999023,393.003448 1049.999023,384.506897 1049.999023,374.538940 
	C1048.684448,377.247101 1047.888672,378.704254 1047.250610,380.227386 
	C1029.408691,422.809509 1011.507324,465.367157 993.856506,508.028381 
	C991.816772,512.958191 989.196899,515.435364 983.840149,514.522522 
	C983.192322,514.412109 982.509155,514.518860 981.842834,514.505859 
	C964.509521,514.167419 968.946106,517.303284 962.082092,501.111176 
	C945.101135,461.053467 928.406616,420.874420 911.589233,380.747345 
	C911.034729,379.424347 910.396240,378.136566 909.027100,376.884552 
	C909.027100,378.432007 909.027100,379.979492 909.027100,381.526947 
	C909.026733,423.359467 909.028931,465.191956 909.023254,507.024475 
	C909.022339,514.016907 908.576843,514.468750 901.771606,514.504028 
	C898.105042,514.523071 894.438232,514.531250 890.771851,514.502014 
	C884.484436,514.451843 883.932556,513.915833 883.931519,507.663361 
	C883.923279,455.164398 883.926758,402.665405 883.926758,350.166443 
	C883.926758,343.999908 884.035583,337.830750 883.888489,331.667725 
	C883.793152,327.673859 885.337585,325.834900 889.468384,325.957458 
	C895.130005,326.125427 900.817505,326.272919 906.461609,325.916962 
	C911.465515,325.601410 913.885620,327.749878 915.736328,332.251221 
	C935.375427,380.017181 955.192566,427.709961 974.964172,475.421417 
	C976.359009,478.787292 977.781738,482.141571 979.463806,486.149994 
	C987.125305,467.635010 994.544983,449.745392 1001.932495,431.842499 
	C1015.678345,398.530914 1029.467773,365.236908 1043.064575,331.864594 
	C1044.849121,327.484467 1047.373047,325.667664 1052.073730,325.925629 
	C1057.723389,326.235657 1063.411377,326.190247 1069.066772,325.939301 
	C1073.718140,325.732910 1075.195557,327.767700 1075.160156,332.187927 
	C1075.023804,349.186523 1075.105103,366.186859 1075.105103,383.186523 
	C1075.105103,424.519043 1075.108032,465.851562 1075.102173,507.184082 
	C1075.101196,514.100830 1074.714233,514.474854 1067.726807,514.504517 
	C1063.893555,514.520813 1060.051270,514.340820 1056.229370,514.548828 
	C1051.421265,514.810486 1049.903931,512.706055 1049.922729,507.998169 
	C1050.063110,472.832550 1049.999023,437.666168 1049.999023,402.000000 
z"/>
<path fill="#FFFFFF" opacity="1.000000" stroke="none" 
	d="
M651.394409,636.586548 
	C542.205750,596.124084 433.358887,555.847473 324.519714,515.550232 
	C257.881256,490.877533 191.160980,466.420258 124.706779,441.260498 
	C112.373497,436.591064 101.001076,429.269775 89.417229,422.759460 
	C67.941071,410.689575 46.697239,398.205963 25.205402,386.164581 
	C21.190310,383.915039 19.394842,381.420288 19.918337,376.830780 
	C20.309931,373.397675 19.995605,369.884003 19.995605,365.677002 
	C22.003967,366.187958 23.596035,366.337280 24.957836,366.976898 
	C57.644924,382.328888 89.867058,398.774017 123.098663,412.834259 
	C156.017960,426.762360 189.931030,438.347717 223.442108,450.869934 
	C373.404755,506.906982 523.379578,562.911621 673.349854,618.928345 
	C674.590881,619.391907 675.829895,619.861145 678.004028,620.679260 
	C670.820984,625.482422 664.175354,630.022644 657.412476,634.380981 
	C655.714661,635.475098 653.640564,635.985168 651.394409,636.586548 
z"/>
<path fill="#FFFFFF" opacity="1.000000" stroke="none" 
	d="
M240.651901,535.256287 
	C198.087662,519.713623 155.869812,504.363983 113.727524,488.809570 
	C109.428520,487.222839 105.222694,484.877289 101.584625,482.087158 
	C74.894302,461.617828 48.331959,440.980896 21.847462,420.245819 
	C20.312960,419.044434 19.149899,416.590179 18.959349,414.608826 
	C18.531713,410.162262 18.825384,405.646393 18.825384,400.090149 
	C21.365536,401.387207 23.410456,402.185638 25.191385,403.378296 
	C45.523739,416.994965 66.140228,430.219147 86.020958,444.468811 
	C103.384605,456.914337 122.175751,465.822662 142.180984,473.144043 
	C302.952515,531.982117 463.582825,591.206055 624.250549,650.327698 
	C625.726807,650.870850 627.124573,651.627319 629.602356,652.762024 
	C621.556641,658.262939 614.406311,663.301575 607.043396,668.007690 
	C606.052795,668.640869 603.905884,667.831360 602.437195,667.297241 
	C544.456421,646.212341 486.482300,625.108948 428.528290,603.950439 
	C366.014618,581.127075 303.521729,558.246582 240.651901,535.256287 
z"/>
<path fill="#FFFFFF" opacity="1.000000" stroke="none" 
	d="
M292.679688,237.187195 
	C234.889542,221.947906 177.487289,206.846313 120.126030,191.590591 
	C114.397949,190.067169 109.091293,190.228241 103.528061,192.159286 
	C88.917656,197.230682 74.217796,202.044388 58.592831,207.282852 
	C60.931080,199.799896 62.956760,192.902390 65.338181,186.129990 
	C65.708084,185.078049 67.637131,184.440948 68.958542,183.878235 
	C78.740448,179.712784 88.652618,175.835861 98.309105,171.400696 
	C103.020622,169.236725 107.416054,169.130432 112.286850,170.381790 
	C194.382034,191.472900 276.481842,212.546478 358.613983,233.493088 
	C386.637878,240.640167 414.748688,247.447189 442.828674,254.373459 
	C475.413696,262.410950 506.398041,275.039551 537.520508,287.281677 
	C546.037048,290.631714 554.589355,293.892426 563.153870,297.118225 
	C576.926208,302.305511 588.841003,310.179199 599.242310,320.657074 
	C637.984802,359.684753 676.823914,398.617371 715.809509,437.401947 
	C723.382019,444.935394 726.979004,453.665070 727.184326,465.168304 
	C725.312073,463.859680 723.925598,463.124786 722.824524,462.087158 
	C682.442810,424.032196 642.168274,385.862671 601.614868,347.991791 
	C597.118042,343.792358 591.391541,340.435394 585.658813,338.107452 
	C531.851501,316.257629 478.148102,294.116089 423.904999,273.393036 
	C403.170929,265.471771 381.154083,260.871185 359.656860,254.994858 
	C337.505493,248.939743 315.275024,243.173889 292.679688,237.187195 
z"/>
<path fill="#FFFFFF" opacity="1.000000" stroke="none" 
	d="
M176.627747,561.290283 
	C153.245819,552.879150 130.123032,544.891357 107.287407,536.153198 
	C101.271088,533.851013 95.396309,530.008423 90.731506,525.541687 
	C66.907814,502.729401 43.467037,479.516052 20.028740,456.305206 
	C18.491594,454.782990 17.488493,452.168365 17.286995,449.965820 
	C16.870199,445.409943 17.161358,440.789307 17.161358,434.731842 
	C20.554398,437.370026 23.061556,439.125885 25.351538,441.129913 
	C48.792446,461.643921 72.084190,482.330811 95.712807,502.625763 
	C100.260056,506.531433 105.755394,509.862946 111.377464,511.910248 
	C260.036652,566.045227 408.770233,619.975952 557.490356,673.943665 
	C566.082764,677.061707 574.668579,680.197815 583.763489,683.509766 
	C576.125305,688.554077 568.895569,693.557617 561.379333,698.085693 
	C559.991028,698.922180 557.299500,698.242310 555.454529,697.579834 
	C505.211914,679.539551 455.012909,661.377869 404.782288,643.304077 
	C328.862579,615.987000 252.924530,588.720825 176.627747,561.290283 
z"/>
<path fill="#FFFFFF" opacity="1.000000" stroke="none" 
	d="
M1413.260254,514.317017 
	C1357.606445,529.941956 1303.728638,494.002075 1292.494019,441.027130 
	C1279.612427,380.285553 1326.638794,322.528198 1388.649902,323.890930 
	C1440.045166,325.020355 1480.374268,364.457306 1483.083008,416.235107 
	C1485.440552,461.301147 1456.175537,502.584961 1413.260254,514.317017 
M1456.237793,439.674927 
	C1456.839233,430.600464 1458.582031,421.432526 1457.848022,412.467407 
	C1454.314331,369.309601 1412.321777,339.534882 1370.330444,349.866058 
	C1334.387695,358.709076 1312.325317,391.046021 1315.923218,429.610413 
	C1319.085938,463.509125 1346.724243,491.033966 1380.448608,493.870972 
	C1415.672607,496.834106 1447.472656,474.382538 1456.237793,439.674927 
z"/>
<path fill="#FFFFFF" opacity="1.000000" stroke="none" 
	d="
M683.836121,370.157806 
	C692.743713,380.104675 701.028564,390.172333 710.205261,399.347992 
	C717.997253,407.139099 721.444946,416.001099 720.486633,427.301697 
	C719.395996,426.295929 718.358093,425.449097 717.446899,424.482758 
	C673.548706,377.928284 629.404175,331.601501 585.958374,284.628418 
	C575.413269,273.227203 563.404236,265.660400 548.740784,261.911987 
	C518.454468,254.169907 488.141296,246.526993 457.778412,239.091370 
	C345.245270,211.533020 232.623871,184.330246 120.214996,156.275238 
	C105.241875,152.538254 92.067360,151.695053 79.213219,160.888763 
	C77.517357,162.101700 75.423973,162.758835 72.596947,164.113007 
	C75.212631,155.995483 76.777870,148.404160 80.117241,141.695984 
	C82.507996,136.893387 88.119034,134.221710 93.731590,134.959763 
	C104.078224,136.320343 114.431335,138.009476 124.586090,140.394684 
	C271.244965,174.842667 417.867767,209.444397 564.518799,243.925735 
	C570.123352,245.243500 574.428894,247.894241 578.271301,252.206161 
	C613.295898,291.510468 648.469788,330.681702 683.836121,370.157806 
z"/>
<path fill="#FFFFFF" opacity="1.000000" stroke="none" 
	d="
M1146.068848,452.044220 
	C1146.068115,471.040161 1145.948242,489.540619 1146.147461,508.037598 
	C1146.198608,512.780090 1144.611572,514.809814 1139.824219,514.551147 
	C1135.836060,514.335632 1131.826782,514.532959 1127.827148,514.501465 
	C1121.538208,514.452087 1120.977539,513.902893 1120.976562,507.650757 
	C1120.968872,453.653229 1120.972046,399.655670 1120.972046,345.658142 
	C1120.972046,340.991699 1121.080200,336.321960 1120.939331,331.659790 
	C1120.818726,327.667358 1122.421875,325.932373 1126.540405,325.954865 
	C1150.705078,326.086578 1174.884033,325.629913 1199.028931,326.349976 
	C1208.373291,326.628662 1217.912109,328.586365 1226.883179,331.339844 
	C1241.814819,335.922791 1251.878296,346.169952 1256.262939,361.413330 
	C1260.442383,375.943604 1260.732666,390.669159 1257.389893,405.376038 
	C1253.396362,422.945251 1242.446655,434.259674 1225.414307,439.827362 
	C1224.466675,440.137115 1223.514160,440.432281 1222.561035,440.724823 
	C1221.786499,440.962616 1221.007568,441.186340 1219.805054,441.542236 
	C1226.178345,453.651184 1232.429688,465.533234 1238.685669,477.412842 
	C1244.104858,487.703491 1249.563721,497.973389 1254.936890,508.287933 
	C1257.517578,513.242065 1256.755371,514.457642 1251.234375,514.500366 
	C1246.901489,514.533875 1242.540894,514.204041 1238.242310,514.589539 
	C1233.568848,515.008545 1230.996094,513.198364 1228.897949,509.042633 
	C1218.715576,488.874817 1208.177368,468.886810 1197.967163,448.732819 
	C1196.297607,445.437469 1194.353760,444.354523 1190.690430,444.412231 
	C1176.036743,444.643097 1161.377319,444.507507 1146.068604,444.507507 
	C1146.068604,447.018433 1146.068604,449.282928 1146.068848,452.044220 
M1183.494873,421.508270 
	C1190.478394,421.340027 1197.486206,421.483398 1204.440552,420.940887 
	C1220.625366,419.678345 1230.937988,412.067444 1233.602783,398.481964 
	C1234.956665,391.579712 1235.284790,384.181793 1234.448608,377.203033 
	C1232.439697,360.436401 1223.927368,351.724335 1207.039307,350.101898 
	C1193.343994,348.786255 1179.473877,349.254791 1165.679810,349.017517 
	C1159.247192,348.906860 1152.811157,348.998596 1146.065674,348.998596 
	C1146.065674,361.473999 1146.065796,373.422577 1146.065796,385.371124 
	C1146.065796,397.285004 1146.065674,409.198914 1146.065674,421.508179 
	C1158.584229,421.508179 1170.540527,421.508179 1183.494873,421.508270 
z"/>
<path fill="#FFFFFF" opacity="1.000000" stroke="none" 
	d="
M233.469284,604.622925 
	C334.919220,640.876160 436.010040,676.974182 538.327209,713.510071 
	C530.190369,718.967407 523.555359,723.623840 516.660339,727.856689 
	C515.379456,728.642944 512.909058,728.128113 511.227997,727.533752 
	C462.152832,710.182373 413.119232,692.713440 364.056244,675.327332 
	C276.241974,644.209290 188.427872,613.090576 100.564026,582.112854 
	C92.951462,579.428955 86.782722,575.472290 81.594841,569.144653 
	C60.694061,543.651917 39.421261,518.464478 18.408964,493.062531 
	C17.070444,491.444427 16.238008,488.997498 16.101936,486.876373 
	C15.772844,481.746582 15.995097,476.581421 15.995097,471.430511 
	C16.479528,470.965942 16.963959,470.501343 17.448389,470.036774 
	C18.229437,471.374146 18.800354,472.903870 19.822441,474.020660 
	C42.426369,498.718536 64.947762,523.494995 87.854652,547.909607 
	C91.678741,551.985413 96.808411,555.576416 102.031433,557.482849 
	C145.631989,573.397461 189.395676,588.865173 233.469284,604.622925 
z"/>
<path fill="#FFFFFF" opacity="1.000000" stroke="none" 
	d="
M169.413208,652.518555 
	C142.662842,643.139160 116.277718,633.906067 89.877663,624.715942 
	C83.538048,622.509033 78.649811,618.742676 74.755234,613.127136 
	C56.253265,586.449463 37.578800,559.890320 18.787148,533.415710 
	C15.957504,529.429199 14.256859,525.552002 14.750180,520.590332 
	C15.123959,516.830994 14.824251,513.004700 15.786880,508.607239 
	C16.956305,509.996185 18.184406,511.340210 19.286449,512.780701 
	C39.422386,539.100891 59.591316,565.396057 79.624420,591.794312 
	C83.400162,596.769714 88.050934,600.047668 93.914177,602.110046 
	C224.349106,647.990906 354.761597,693.935547 485.174957,739.877625 
	C487.974487,740.863831 490.734680,741.961792 494.003815,743.192261 
	C486.802124,747.934021 480.242706,752.474609 473.416382,756.570312 
	C471.960205,757.443909 469.347992,757.237183 467.581848,756.624634 
	C415.720886,738.636230 363.894989,720.546509 312.073395,702.444763 
	C264.633972,685.873779 217.205994,669.270081 169.413208,652.518555 
z"/>
<path fill="#FFFFFF" opacity="1.000000" stroke="none" 
	d="
M1751.000000,427.836060 
	C1736.208252,427.836060 1721.916504,427.836060 1707.386353,427.836060 
	C1707.386353,449.217072 1707.386353,470.154114 1707.386353,491.830872 
	C1709.141113,491.830872 1710.895752,491.830841 1712.650513,491.830841 
	C1741.150391,491.830841 1769.650146,491.825317 1798.150024,491.835022 
	C1804.830933,491.837311 1805.120361,492.151550 1805.146606,498.987366 
	C1805.158691,502.153992 1804.937500,505.337494 1805.192383,508.483368 
	C1805.575317,513.207153 1803.312988,514.679565 1798.961548,514.536865 
	C1793.634033,514.362122 1788.296265,514.495789 1782.963013,514.495789 
	C1751.796509,514.495850 1720.630005,514.502869 1689.463501,514.490295 
	C1682.519409,514.487488 1682.030640,513.994568 1682.030029,507.177582 
	C1682.024536,449.177948 1682.024048,391.178284 1682.031006,333.178650 
	C1682.031738,326.533630 1682.559082,326.004333 1689.117065,326.003021 
	C1725.450195,325.995697 1761.783203,325.994537 1798.116333,326.004333 
	C1804.248657,326.005981 1804.937988,326.725220 1804.979248,332.925079 
	C1804.995850,335.424927 1804.982910,337.925018 1804.981812,340.424988 
	C1804.978149,348.550171 1804.545410,348.998871 1796.623047,348.999542 
	C1768.789917,349.001953 1740.956665,349.000488 1713.123535,349.000488 
	C1711.314453,349.000488 1709.505371,349.000488 1707.424072,349.000488 
	C1707.424072,367.571472 1707.424072,385.828033 1707.424072,404.830872 
	C1709.136108,404.830872 1710.889771,404.830902 1712.643433,404.830902 
	C1738.809937,404.830902 1764.976440,404.822113 1791.142944,404.837524 
	C1797.125122,404.841034 1797.824463,405.536804 1797.892700,411.356903 
	C1797.931763,414.689758 1797.730957,418.033997 1797.939331,421.354218 
	C1798.235962,426.080109 1796.242188,427.950897 1791.499023,427.892822 
	C1778.167847,427.729553 1764.833252,427.835999 1751.000000,427.836060 
z"/>
<path fill="#FFFFFF" opacity="1.000000" stroke="none" 
	d="
M685.266357,338.721008 
	C693.117249,348.461060 700.882263,357.817627 708.333984,367.417389 
	C713.497070,374.068665 715.398560,381.977417 716.093079,391.571930 
	C713.988159,389.618622 712.491272,388.485291 711.302551,387.089569 
	C668.108093,336.373230 624.923767,285.648224 581.806458,234.866302 
	C578.195862,230.613892 573.924805,228.080383 568.469360,226.849640 
	C412.054749,191.562469 255.657349,156.198914 99.262184,120.825531 
	C96.569008,120.216377 93.937447,119.334831 91.177925,117.420349 
	C99.232452,114.702202 107.272163,111.938248 115.360275,109.323997 
	C116.368378,108.998154 117.660378,109.339218 118.774483,109.583046 
	C186.503448,124.406219 254.212006,139.322937 321.956238,154.075912 
	C398.796204,170.809677 475.667389,187.400131 552.526184,204.047333 
	C557.880676,205.207092 563.227112,206.416580 568.609375,207.432892 
	C575.955383,208.820038 582.096924,212.377045 586.757202,218.072067 
	C607.219727,243.078201 627.502869,268.230988 647.917664,293.276398 
	C660.230957,308.382782 672.666321,323.389648 685.266357,338.721008 
z"/>
<path fill="#FFFFFF" opacity="1.000000" stroke="none" 
	d="
M2098.524414,448.482117 
	C2093.301514,441.386627 2088.305908,434.570038 2082.963623,427.279999 
	C2076.037354,435.070801 2069.364502,442.427124 2062.929932,449.986176 
	C2062.034912,451.037384 2062.088623,453.087006 2062.083740,454.675629 
	C2062.028809,472.342010 2062.057129,490.008606 2062.042969,507.675140 
	C2062.037842,513.876709 2061.446533,514.452271 2055.161865,514.502869 
	C2051.495361,514.532349 2047.828491,514.524475 2044.161987,514.504700 
	C2037.362061,514.468079 2036.959961,514.051636 2036.956665,507.010620 
	C2036.949341,491.177399 2036.952759,475.344208 2036.952881,459.510986 
	C2036.953125,417.511322 2036.952026,375.511627 2036.956665,333.511963 
	C2036.957397,326.223297 2037.191406,326.005463 2044.661255,325.999054 
	C2048.327881,325.995911 2052.009766,326.208313 2055.657471,325.946655 
	C2060.465332,325.601837 2062.135254,327.630798 2062.110596,332.357697 
	C2061.977539,357.856812 2062.047363,383.356964 2062.047363,408.856781 
	C2062.047363,411.187164 2062.047363,413.517548 2062.047363,416.673157 
	C2063.365234,415.434601 2064.291016,414.695404 2065.062500,413.820129 
	C2089.633057,385.946228 2114.216797,358.083618 2138.704590,330.136963 
	C2141.190186,327.300262 2143.744385,325.719299 2147.675293,325.921234 
	C2153.493164,326.220093 2159.342285,325.877228 2165.168701,326.076935 
	C2166.788086,326.132446 2168.375244,327.139099 2169.977051,327.709351 
	C2169.279785,329.124695 2168.853027,330.779205 2167.844971,331.919952 
	C2147.651367,354.768036 2127.390137,377.556305 2107.145020,400.358978 
	C2104.609375,403.215088 2102.088379,406.084381 2099.284180,409.260406 
	C2107.215820,420.057709 2115.058594,430.739136 2122.906738,441.416656 
	C2139.076172,463.415070 2155.273926,485.393005 2171.367188,507.447083 
	C2172.542725,509.058167 2172.969971,511.215240 2173.745117,513.118530 
	C2171.730713,513.581848 2169.729492,514.362244 2167.699463,514.445068 
	C2162.874268,514.641785 2158.014404,514.229187 2153.208252,514.589478 
	C2148.715576,514.926270 2145.875000,513.317322 2143.236816,509.655304 
	C2128.543213,489.260193 2113.605957,469.040619 2098.524414,448.482117 
z"/>
<path fill="#FFFFFF" opacity="1.000000" stroke="none" 
	d="
M1975.630859,481.688232 
	C1977.003418,480.696564 1978.113770,479.958221 1979.161133,479.139252 
	C1988.020508,472.211639 1986.550049,471.780426 1994.896851,480.577545 
	C2003.700928,489.856476 2005.217529,488.610168 1993.696899,497.981049 
	C1952.585205,531.421631 1889.096191,522.105225 1858.824829,478.264771 
	C1831.674194,438.943848 1835.301025,387.341797 1867.644043,352.789307 
	C1902.208862,315.863190 1962.968628,313.993744 1999.484619,348.636993 
	C2002.359619,351.364655 2002.338135,353.508362 1999.731689,356.168030 
	C1996.934814,359.021851 1994.072632,361.842499 1991.567749,364.943390 
	C1988.540894,368.690430 1985.957886,368.408203 1982.424561,365.409973 
	C1968.708740,353.771698 1952.796387,347.811249 1934.728882,348.248505 
	C1895.649170,349.194275 1865.644165,381.843109 1866.754395,422.066711 
	C1867.709595,456.674652 1888.027710,483.507629 1919.940063,491.334717 
	C1939.581909,496.152252 1958.234985,493.049713 1975.630859,481.688232 
z"/>
<path fill="#FFFFFF" opacity="1.000000" stroke="none" 
	d="
M2205.594727,492.071106 
	C2222.985840,491.966339 2239.933105,491.966339 2257.124023,491.966339 
	C2257.124023,444.079041 2257.124023,396.821808 2257.124023,349.005219 
	C2255.578613,349.005219 2253.961426,349.005219 2252.344238,349.005219 
	C2238.518066,349.005219 2224.691650,349.010498 2210.865479,349.003082 
	C2203.565430,348.999146 2203.021484,348.432556 2203.013672,340.953735 
	C2203.010498,337.788696 2203.074219,334.622223 2202.998779,331.458984 
	C2202.910645,327.777252 2204.388428,325.955963 2208.306152,325.961304 
	C2249.451660,326.017456 2290.597168,326.017731 2331.742676,325.961334 
	C2335.701416,325.955902 2337.075684,327.884857 2337.016846,331.510468 
	C2336.957520,335.174286 2336.823975,338.850922 2337.049072,342.501862 
	C2337.342529,347.260559 2335.267090,349.094055 2330.588379,349.051605 
	C2316.430176,348.923035 2302.270020,349.005188 2288.110596,349.005219 
	C2286.472656,349.005219 2284.834717,349.005219 2282.956543,349.005219 
	C2282.956543,396.690674 2282.956543,444.039093 2282.956543,491.824554 
	C2298.187500,491.824554 2313.142090,491.824036 2328.096680,491.824738 
	C2337.002441,491.825165 2337.002441,491.826019 2337.004150,500.641846 
	C2337.004639,502.973969 2337.015137,505.306183 2337.002686,507.638245 
	C2336.969482,513.831299 2336.356934,514.500793 2330.114502,514.505249 
	C2298.297607,514.527954 2266.480469,514.515808 2234.663574,514.515808 
	C2226.167969,514.515808 2217.670410,514.404724 2209.177490,514.560913 
	C2204.774902,514.641907 2202.659424,513.053955 2202.965332,508.420044 
	C2203.205811,504.771118 2202.786621,501.073608 2203.108887,497.437378 
	C2203.268311,495.637360 2204.438477,493.926880 2205.594727,492.071106 
z"/>
<path fill="#FFFFFF" opacity="1.000000" stroke="none" 
	d="
M709.458252,346.381714 
	C709.860657,349.240265 710.194214,351.691284 710.744263,355.732971 
	C708.319580,353.248688 706.667664,351.847870 705.362366,350.176331 
	C669.491638,304.237976 633.269043,258.565460 598.068604,212.118469 
	C588.447754,199.423737 577.440857,192.817307 561.892822,189.656326 
	C467.028168,170.369873 372.351685,150.158707 277.600250,130.314163 
	C233.809555,121.142731 189.989792,112.110245 146.190384,102.980309 
	C144.171326,102.559441 142.222839,101.799950 139.026550,100.829170 
	C147.525574,97.792145 154.685501,95.179642 161.894867,92.711517 
	C163.071518,92.308685 164.520950,92.273125 165.752640,92.521812 
	C258.485748,111.244896 351.214325,129.990295 443.932190,148.788788 
	C489.720093,158.072250 535.478882,167.499756 581.275574,176.739380 
	C585.811157,177.654480 589.157166,179.709885 591.914978,183.387451 
	C629.376343,233.341812 666.963928,283.201691 704.286438,333.259369 
	C706.925110,336.798492 707.731201,341.704041 709.458252,346.381714 
z"/>
<path fill="#FFFFFF" opacity="1.000000" stroke="none" 
	d="
M12.344755,554.376526 
	C12.646129,551.452515 12.887046,548.969299 13.229581,545.438599 
	C15.061042,547.542053 16.680857,549.017517 17.841551,550.793091 
	C35.965744,578.518066 54.084679,606.246826 72.065857,634.064575 
	C75.889778,639.980347 81.110367,643.478027 87.661949,645.747742 
	C206.044373,686.760437 324.397949,727.856445 442.755859,768.939819 
	C444.937714,769.697144 447.097839,770.516907 450.407379,771.722595 
	C443.089111,776.760559 436.552887,781.503845 429.707123,785.747742 
	C428.477966,786.509766 425.888000,785.455688 424.067413,784.829712 
	C362.875122,763.787354 301.699615,742.696289 240.522522,721.609680 
	C219.444046,714.344299 198.310944,707.231262 177.321426,699.717285 
	C169.837494,697.038086 162.466248,693.825500 155.454132,690.086487 
	C131.373764,677.246399 107.439133,664.130798 83.545021,650.946106 
	C79.810547,648.885498 76.013901,646.422363 73.205185,643.286255 
	C59.320759,627.783508 45.186871,612.443604 32.302273,596.129150 
	C24.840309,586.680725 19.311073,575.642456 13.494749,565.001160 
	C11.973270,562.217590 12.628660,558.244202 12.344755,554.376526 
z"/>
<path fill="#FFFFFF" opacity="1.000000" stroke="none" 
	d="
M515.784424,149.097504 
	C406.581818,127.795235 297.800812,106.550934 188.028381,85.113007 
	C198.846329,78.060371 209.636810,76.069672 221.256943,78.255463 
	C317.877289,96.430214 414.493347,114.627769 511.112732,132.807739 
	C536.288452,137.544815 561.462036,142.294312 586.658447,146.919022 
	C591.709656,147.846176 595.606018,150.164856 598.547119,154.361526 
	C632.092957,202.227097 665.659973,250.077850 699.243591,297.916931 
	C703.699890,304.264771 704.397644,311.502747 705.076782,318.771210 
	C704.692078,318.985382 704.307373,319.199554 703.922607,319.413727 
	C702.968384,318.226013 701.961121,317.076752 701.067627,315.845001 
	C665.284851,266.518097 629.492859,217.197906 593.788696,167.814133 
	C591.698669,164.923309 589.405762,163.415268 585.808899,162.739624 
	C562.577087,158.375641 539.400635,153.717270 515.784424,149.097504 
z"/>
<path fill="#FFFFFF" opacity="1.000000" stroke="none" 
	d="
M1523.945557,330.458984 
	C1525.517456,328.670349 1526.977417,326.355530 1528.650146,326.190063 
	C1533.765625,325.684021 1538.963623,326.054474 1544.128052,325.985107 
	C1547.507080,325.939728 1549.004761,327.612976 1549.012451,330.860657 
	C1549.015625,332.193695 1549.016968,333.526703 1549.016968,334.859741 
	C1549.016968,385.181732 1549.016846,435.503693 1549.016602,485.825684 
	C1549.016602,487.633759 1549.016602,489.441833 1549.016602,491.832520 
	C1551.092529,491.832520 1552.864014,491.832489 1554.635498,491.832489 
	C1582.629150,491.832642 1610.622925,491.827271 1638.616577,491.837128 
	C1645.100464,491.839417 1645.738159,492.491241 1645.787964,498.956451 
	C1645.806030,501.289093 1645.792480,503.622040 1645.790894,505.954834 
	C1645.785156,514.169250 1645.481079,514.490234 1637.468506,514.491516 
	C1609.641479,514.495972 1581.814331,514.493408 1553.987305,514.493408 
	C1546.155762,514.493408 1538.323853,514.527588 1530.492676,514.481995 
	C1524.520508,514.447205 1523.936035,513.853271 1523.935059,507.875885 
	C1523.925415,448.889160 1523.930176,389.902466 1523.945557,330.458984 
z"/>
<path fill="#FFFFFF" opacity="1.000000" stroke="none" 
	d="
M250.802505,62.469093 
	C261.427216,63.318371 271.754028,63.671223 281.837708,65.423286 
	C343.469086,76.131882 405.035980,87.211319 466.643250,98.059692 
	C508.918762,105.503952 551.227905,112.757088 593.512451,120.149971 
	C597.479858,120.843620 600.942383,122.234871 603.416565,126.026283 
	C632.168396,170.086243 661.074219,214.045715 689.887756,258.065521 
	C695.072937,265.987244 698.336304,274.636047 698.792969,285.001434 
	C697.307434,283.013000 696.134949,281.563568 695.089966,280.027374 
	C663.446228,233.510620 631.787720,187.003769 600.240906,140.421356 
	C598.037415,137.167648 595.659546,135.453705 591.628967,134.721603 
	C473.843842,113.327240 356.088898,91.766426 238.328232,70.237312 
	C237.018875,69.997940 235.697266,69.825638 233.980637,68.530815 
	C239.451157,66.560333 244.921692,64.589851 250.802505,62.469093 
z"/>
<path fill="#FFFFFF" opacity="1.000000" stroke="none" 
	d="
M605.248047,113.663055 
	C602.842834,111.907745 600.788940,109.575783 598.403748,109.164169 
	C532.463989,97.784805 466.491882,86.592209 400.522034,75.387070 
	C359.527069,68.423981 318.526978,61.490921 276.548340,54.378197 
	C286.613617,48.835636 296.265961,45.536320 307.077972,47.328587 
	C388.974854,60.904282 470.864227,74.525665 552.761292,88.100037 
	C569.346863,90.849083 585.965637,93.399254 602.538208,96.222321 
	C604.263672,96.516258 606.420166,97.650658 607.295837,99.064484 
	C624.108887,126.211334 642.266846,152.591003 655.296753,181.923172 
	C657.585876,187.076157 659.550293,192.374252 661.610291,197.626648 
	C661.788086,198.080048 661.555725,198.694305 660.481079,199.645706 
	C642.135742,171.090927 623.790405,142.536148 605.248047,113.663055 
z"/>
<path fill="#FFFFFF" opacity="1.000000" stroke="none" 
	d="
M446.594147,50.491371 
	C482.877655,57.592888 518.752686,64.559555 554.627625,71.526924 
	C570.934204,74.693878 587.245850,77.835022 603.541443,81.057785 
	C606.134277,81.570580 609.403992,81.347931 610.134277,86.414246 
	C512.606567,70.903893 415.599091,55.476265 318.591583,40.048637 
	C318.645050,39.533878 318.698517,39.019119 318.751984,38.504360 
	C330.377380,32.352306 342.644714,32.052910 355.368561,34.347767 
	C385.619324,39.803757 415.910675,45.034847 446.594147,50.491371 
z"/>
<path fill="#FFFFFF" opacity="1.000000" stroke="none" 
	d="
M285.330872,757.648315 
	C320.556213,769.690430 355.400909,781.601318 390.244019,793.516968 
	C395.855103,795.435852 401.458923,797.376038 408.470703,799.789978 
	C400.958160,804.866760 394.514313,809.304565 387.941925,813.543091 
	C387.231018,814.001526 385.695984,813.509094 384.678711,813.111328 
	C378.821136,810.820557 372.728790,808.938660 367.220001,805.979797 
	C338.268921,790.429993 309.468475,774.599731 280.619995,758.859070 
	C280.058716,758.552856 279.549927,758.150452 277.692505,756.905151 
	C281.023346,757.186768 282.986542,757.352722 285.330872,757.648315 
z"/>
<path fill="none" opacity="1.000000" stroke="none" 
	d="
M1456.152100,440.078949 
	C1447.472656,474.382538 1415.672607,496.834106 1380.448608,493.870972 
	C1346.724243,491.033966 1319.085938,463.509125 1315.923218,429.610413 
	C1312.325317,391.046021 1334.387695,358.709076 1370.330444,349.866058 
	C1412.321777,339.534882 1454.314331,369.309601 1457.848022,412.467407 
	C1458.582031,421.432526 1456.839233,430.600464 1456.152100,440.078949 
z"/>
<path fill="none" opacity="1.000000" stroke="none" 
	d="
M1182.995850,421.508240 
	C1170.540527,421.508179 1158.584229,421.508179 1146.065674,421.508179 
	C1146.065674,409.198914 1146.065796,397.285004 1146.065796,385.371124 
	C1146.065796,373.422577 1146.065674,361.473999 1146.065674,348.998596 
	C1152.811157,348.998596 1159.247192,348.906860 1165.679810,349.017517 
	C1179.473877,349.254791 1193.343994,348.786255 1207.039307,350.101898 
	C1223.927368,351.724335 1232.439697,360.436401 1234.448608,377.203033 
	C1235.284790,384.181793 1234.956665,391.579712 1233.602783,398.481964 
	C1230.937988,412.067444 1220.625366,419.678345 1204.440552,420.940887 
	C1197.486206,421.483398 1190.478394,421.340027 1182.995850,421.508240 
z"/>
</svg>